<svg id="Warstwa_1" data-name="Warstwa 1" xmlns="http://www.w3.org/2000/svg" viewBox="0 0 430.45 96.46"><defs><style>.cls-1,.cls-3{fill:none;stroke-miterlimit:10;}.cls-1{stroke:#232323;stroke-width:0.75px;}.cls-2{fill:#232323;}.cls-3{stroke:#000;}</style></defs><title>website_logo</title><path class="cls-1" d="M70.38,200.33c-.18,1.86-.37,3.77-.54,5.63-.09.89-.17,1.77-.26,2.63l-.4-.48c-.06-.07-.12-.15-.19-.22l-.54-.63c-.1-.1-.19-.21-.3-.33l-.14-.15-.06-.07c.23-.68.46-1.36.67-2,.51-1.61,1-3.2,1.45-4.85Z" transform="translate(-32.63 -185.71)"/><path class="cls-1" d="M66.55,200.79l.29,4-1.36.08-2.77.19a23.81,23.81,0,0,1,2.95-4.67h0a4.79,4.79,0,0,1,1.39-1.16q-.35.25-.69.54v1.7Z" transform="translate(-32.63 -185.71)"/><path class="cls-1" d="M72.36,204.39c-.11.59-.24,1.17-.35,1.76l0-.07a1.44,1.44,0,0,0,.08-.26.3.3,0,0,0,0-.08l0-.08s0,0,0,0,0,0,0,0l-.11,3.55c-.24-.35-.51-.72-.79-1.11h0l-1.47-2c.17-1.86.36-3.77.54-5.63l-.31-.51-.41-.69a2.68,2.68,0,0,1,.73.51l1,2.49c.3.72.64,1.51.94,2.25Z" transform="translate(-32.63 -185.71)"/><path class="cls-1" d="M47.75,210.7l.11-.17-1.49,5-2.07.85-4.68,1.92,8.54-8.78A10.41,10.41,0,0,0,47.75,210.7Z" transform="translate(-32.63 -185.71)"/><path class="cls-1" d="M75,221.38a2.73,2.73,0,0,1-.61-.18c-.76-.26-2.09-.78-3.59-1.38-1.82-.73-3.88-1.57-5.42-2.21L63.93,217l-.83-.34-1.93-.29-7.87-1.18h0L51.89,215l-3-.44-2.54,1,1.48-5-.11.17a9.24,9.24,0,0,1,.41-1.15l.55-.58h.12c.49.09,2.4.38,4.73.78l.42.07c2.84.48,6.2,1.1,8.44,1.63h0a11.83,11.83,0,0,1,2.3.7.61.61,0,0,1,.14.07c.22.16.59.45,1,.83h0c1.07.91,2.62,2.31,4.17,3.72h0l1.86,1.7h0C73.62,220,74.91,221.25,75,221.38Z" transform="translate(-32.63 -185.71)"/><path class="cls-1" d="M64.42,235c0,.56-1.68,2.09-3.08,3.39l-2.79-4.19-.24-1.48c1.17-1,2.35-1.89,3.46-2.72.43.84.88,1.68,1.32,2.52l.65,1.24C64,234.16,64.19,234.57,64.42,235Z" transform="translate(-32.63 -185.71)"/><path class="cls-1" d="M80.85,246.51a20.58,20.58,0,0,0-2.28-3.5l.91-11.59,0-1C79.5,231,80.69,241.4,80.85,246.51Z" transform="translate(-32.63 -185.71)"/><path class="cls-1" d="M80.71,256.83c0,.78-.1,1.55-.17,2.33-.87,7.54-1.74,15.09-2,22.63H75.58l2.64-34.34A46.37,46.37,0,0,1,80.71,256.83Z" transform="translate(-32.63 -185.71)"/><path class="cls-1" d="M80.71,256.83c1.33,8.08.94,16.58.76,25h-3c.29-7.54,1.16-15.09,2-22.63C80.61,258.38,80.66,257.61,80.71,256.83Z" transform="translate(-32.63 -185.71)"/><path class="cls-1" d="M87.55,195.43c-1.25,1.33-2.42,2.55-2.42,2.55l-.23,7a10.37,10.37,0,0,0,.93,1.06c.84-1.92,1.61-3.6,2-4.34.32-.57,1.18-1.81,2.29-3.33C89.32,197.41,88.3,196.51,87.55,195.43Z" transform="translate(-32.63 -185.71)"/><path class="cls-1" d="M98.66,187.12s-7.83,4.55-8.1,5c-.08.13-.58.69-1.25,1.41.46,1.39.94,2.77,1.33,4.18C93.88,193.3,98.66,187.12,98.66,187.12Z" transform="translate(-32.63 -185.71)"/><path class="cls-1" d="M89.31,193.53l-1.76,1.9c.75,1.08,1.77,2,2.59,3l.5-.69C90.25,196.3,89.77,194.92,89.31,193.53Z" transform="translate(-32.63 -185.71)"/><path class="cls-1" d="M85.83,206.07A10.37,10.37,0,0,1,84.9,205v.13l-2.45-4A31.47,31.47,0,0,0,80,208.2c.94,1.5,2,2.9,3,4.29C83.81,210.74,84.87,208.25,85.83,206.07Z" transform="translate(-32.63 -185.71)"/><path class="cls-1" d="M83.07,212.49l-.29.71h0c-.08.22-.17.42-.24.59l-.38.91s0,0,0,0h0a0,0,0,0,0,0,0,.24.24,0,0,0,0,.08l-1.71,6.47-.11.05h0s-.66-9.37-.3-12.64c0-.18,0-.35.08-.54.22.36.45.71.68,1.06l0,.05c.21.32.44.64.67,1l.08.12c.22.3.45.6.67.91l.75,1Z" transform="translate(-32.63 -185.71)"/><path class="cls-1" d="M92.13,206.52l-2.8-2.71h0a21.32,21.32,0,0,0-2.53.07c-.82,1.8-1.88,4.26-2.78,6.39h5.74C91.07,208.16,92.13,206.52,92.13,206.52Z" transform="translate(-32.63 -185.71)"/><path class="cls-1" d="M87.26,214.42c-.39.68-.76,1.34-1.09,1.94A11.23,11.23,0,0,1,81.11,221a6.42,6.42,0,0,1-.71.3l1.71-6.47a.24.24,0,0,1,0-.08,0,0,0,0,1,0,0h0s0,0,0,0l.38-.91c.07-.17.16-.37.24-.59h0a8.23,8.23,0,0,1,.86.19,3.9,3.9,0,0,1,.46.12l.45.13A26.83,26.83,0,0,0,87.26,214.42Z" transform="translate(-32.63 -185.71)"/><path class="cls-1" d="M84,210.27c-.48,1.12-.91,2.14-1.24,2.93,1.57.25,3,.92,4.48,1.22.8-1.38,1.7-2.85,2.5-4.15Z" transform="translate(-32.63 -185.71)"/><path class="cls-1" d="M87.85,201.73c-.24.43-.61,1.2-1,2.15a21.32,21.32,0,0,1,2.53-.07l4.48-.87,1.73-2.71a36.66,36.66,0,0,1-4.51-3C89.5,199.25,88.25,201,87.85,201.73Z" transform="translate(-32.63 -185.71)"/><path class="cls-1" d="M98.66,187.12s-4,5.11-7.11,9.36a17.1,17.1,0,0,0,5.33,1.38Z" transform="translate(-32.63 -185.71)"/><path class="cls-1" d="M96.88,197.86a17.1,17.1,0,0,1-5.33-1.38l-.52.71a36.66,36.66,0,0,0,4.51,3l1.27-2Z" transform="translate(-32.63 -185.71)"/><path class="cls-1" d="M98.27,234c-1.26,1.56-2.48,3.13-3.68,4.69l-.35.45-1-1.31-.06-.08,0,0h0l-.06-.07-.06-.07-.06-.08a0,0,0,0,1,0,0l-.07-.07-.31-.36a1.58,1.58,0,0,0-.12-.15l-.18-.2-.13-.14a.87.87,0,0,0-.13-.15l-.42-.48-.71-.78-.44-.48-.14-.16c-.11-.11-.22-.24-.33-.36a1.45,1.45,0,0,1-.16-.18,3.89,3.89,0,0,1-.34-.36l-.07-.07-.12-.13-.12-.13-1.34-1.4-.26-.27c-.41-.41-.84-.82-1.26-1.22l.56-.44c.17-.14.35-.27.54-.4l.17-.13.18-.12.46-.31c.15-.1.3-.2.46-.29a4.39,4.39,0,0,1,.47-.27l.38-.21.66-.32a4.94,4.94,0,0,1,1,.48l1.59,1.13-1.19,4.14,3.76-2.82A43.09,43.09,0,0,0,98.27,234Z" transform="translate(-32.63 -185.71)"/><path class="cls-1" d="M98.83,244.17l4-3.19s-.61-3.75-2.87-5.45A19.87,19.87,0,0,1,98.27,234c-1.39,1.72-2.72,3.43-4,5.14l4.19,5.37A2.94,2.94,0,0,0,98.83,244.17Z" transform="translate(-32.63 -185.71)"/><path class="cls-1" d="M103,242.5s-4.38,1.87-4.6,2l6.77,8.67Z" transform="translate(-32.63 -185.71)"/><path class="cls-1" d="M81.32,226.35l.19.14c-.06-.05-.62-.07-.67.09a2,2,0,0,1,.2-.43Z" transform="translate(-32.63 -185.71)"/><path class="cls-1" d="M95.88,246.35v0l-3.27,1s-1.57-1.89-3.26-4l-1.47-1.84c-1.13-1.44-2.13-2.76-2.54-3.42a1.8,1.8,0,0,1-.1-.18.64.64,0,0,1-.1-.23.42.42,0,0,1,0-.16v-.08h0c0-.08,0-.18.06-.28s.07-.25.11-.39l.09-.27.14-.39c.23-.6.5-1.23.68-1.62,0,0,0,0,0,0,.24-.37.48-.76.71-1.15l.35-.58.33-.61.14-.25,1.34,1.4s0,0,0,0a2.73,2.73,0,0,1,.23.25h0l.07.07.24.27.26.27c.11.12.22.25.33.36l.14.16.44.48.71.78.42.48.13.15.13.14.18.2.12.15.31.36a.19.19,0,0,1,.06.07l0,0,.06.08.06.07.06.07h0l0,0,.06.08,1,1.31,4.19,5.37.35.45,6.14,7.88.08.09a.7.7,0,0,0,.06.09l.06.06.08.1-9.91-3.95Z" transform="translate(-32.63 -185.71)"/><path class="cls-1" d="M81.47,281.79c.18-8.38.57-16.88-.76-25a46.37,46.37,0,0,0-2.49-9.38c-.19-.49-.39-1-.6-1.46l-1-5.08a16.52,16.52,0,0,1,1.93,2,20.47,20.47,0,0,1,2.28,3.56,27.4,27.4,0,0,1,1.27,2.8l2.47,31.94,0,.47a.56.56,0,0,0,0,.07Z" transform="translate(-32.63 -185.71)"/><path class="cls-1" d="M82.57,250.48s1.74,26.53,2,30.77l-2.47-31.94C82.28,249.69,82.43,250.07,82.57,250.48Z" transform="translate(-32.63 -185.71)"/><path class="cls-1" d="M84.62,281.72l0-.47C84.61,281.47,84.62,281.62,84.62,281.72Z" transform="translate(-32.63 -185.71)"/><path class="cls-1" d="M81.47,281.79H75.58l2-35.8c.21.49.41,1,.6,1.46a46.37,46.37,0,0,1,2.49,9.38C82,264.91,81.65,273.41,81.47,281.79Z" transform="translate(-32.63 -185.71)"/><path class="cls-1" d="M96.07,216.26h0l-.6,4.46-.23,1.67s-.8-.13-1.9-.28l-.51-.07-.47-.07-.5-.06-.53-.07h-.07c-.14-.46-.27-.92-.39-1.37s-.33-1.18-.5-1.77c-.08-.26-.16-.52-.25-.78v0l2.38-1.7a6,6,0,0,1,1.6-.67c.45-.09,1.1-.18,1.85-.26C96,215.57,96,215.91,96.07,216.26Z" transform="translate(-32.63 -185.71)"/><polygon class="cls-1" points="63.95 35.09 62.85 35.02 63.45 30.56 63.45 30.55 63.95 35.09"/><path class="cls-1" d="M90.37,218.7c.17.59.34,1.18.5,1.77l-4.06-.24,3.3-2.36v0C90.21,218.18,90.29,218.44,90.37,218.7Z" transform="translate(-32.63 -185.71)"/><path class="cls-1" d="M106,224c-1.23-.35-2.52-.71-3.08-.9,0-.34,0-.67,0-1q0-.78.06-1.56c0-.19,0-.37,0-.56s0-.22,0-.33,0-.44.06-.66,0-.39.06-.59l.09-.7c0-.28.07-3.24.09-3.07s.26,2.14.28,2.29,0,.2,0,.3,0,.28.06.42l.06.28.06.28a16.18,16.18,0,0,0,.66,2.11c.32.83.67,1.64,1,2.45.08.21.16.42.23.62S105.89,223.77,106,224Z" transform="translate(-32.63 -185.71)"/><path class="cls-1" d="M103.33,214.1l.81.43-2.94.22c-1.66.13-3.69.3-5.26.49-.75.08-1.4.17-1.85.26a6,6,0,0,0-1.6.67l1.46-1Z" transform="translate(-32.63 -185.71)"/><path class="cls-1" d="M113.25,224.74,110.4,224l-1.36-.35.84-2.92h0a14.09,14.09,0,0,1,.09-2.66c-1.7-1.13-3.39-2.16-4.48-2.82l4.75,2.47.33.76Z" transform="translate(-32.63 -185.71)"/><path class="cls-1" d="M101,221.59l1.89.49c0,.33,0,.66,0,1l-.11,0-.13,0-.17,0-.29-.05a.51.51,0,0,0-.17,0l-.22,0-.49-.06-.29,0C101,222.37,101,222,101,221.59Z" transform="translate(-32.63 -185.71)"/><path class="cls-1" d="M98.33,187.54l0,.08-.08.1-.06.07-6.46,8.74-.07.09-.42.7c-.68,1.15-2.11,3.61-3.56,6.51-.91,1.81-1.83,3.8-2.57,5.73-.09.24-.19.47-.27.7-.42,1.09-.8,2.14-1.15,3.13-1.58,4.39-2.53,7.63-2.53,7.63a6.42,6.42,0,0,1-.71.3l-.11.05h0l.09-.36c.24-.9.91-3.41,1.77-6.17a.24.24,0,0,1,0-.08,0,0,0,0,1,0,0h0s0,0,0,0c.25-.8.51-1.61.77-2.41s.65-1.88,1-2.73c.43-1.1,1-2.39,1.7-3.72s1.37-2.57,2.06-3.79a.43.43,0,0,0,0-.07h0a0,0,0,0,1,0,0l0,0h0l.24-.43,0-.07,0-.07,0,0h0l0-.08c.65-1.19,1.28-2.24,1.78-3.06.22-.35.4-.67.56-.93l.49-.78Z" transform="translate(-32.63 -185.71)"/><path class="cls-1" d="M67.05,199.24q-.35.25-.69.54v1.7l-.88,3.4-.18.7-5.48,1.77,0-.07,0-.06a47.24,47.24,0,0,1,5.76-6.82h0A4.79,4.79,0,0,1,67.05,199.24Z" transform="translate(-32.63 -185.71)"/><path class="cls-1" d="M73.6,207.4c-.09-.24-.62-1.54-1.24-3-.11.59-.24,1.17-.35,1.76h0v0s0,.12-.06.18-.12.33-.19.5a1.39,1.39,0,0,1-.06.19l0,0c-.09.28-.2.55-.32.83a.3.3,0,0,1,0,.1h0c-.08.2-.17.41-.26.59s-.08.17-.11.25-.1.2-.15.29-.09.16-.14.23a.52.52,0,0,1-.07.11,1.35,1.35,0,0,1-.12.12c-.07.06-.15.06-.19-.05a1.9,1.9,0,0,0-.17-.28h0a3.4,3.4,0,0,0-.27-.37,2.34,2.34,0,0,0-.24-.31c.09-.86.17-1.74.26-2.63.17-1.86.36-3.77.54-5.63l-.31-.51-.41-.69a2.68,2.68,0,0,1,.73.51l1,2.49c.38.67.72,1.3,1,1.91a14.34,14.34,0,0,1,1,2.77C73.49,207,73.54,207.17,73.6,207.4Z" transform="translate(-32.63 -185.71)"/><path class="cls-1" d="M66.36,199.78v1.7l-.88,3.4-.18.7-5.48,1.77,0-.07,0-.06a47.24,47.24,0,0,1,5.76-6.82h0C65.9,200.18,66.13,200,66.36,199.78Z" transform="translate(-32.63 -185.71)"/><path class="cls-1" d="M70.07,199.82c-.46,1.65-.94,3.24-1.45,4.85-.21.68-.44,1.36-.67,2l-.22-.24-.12-.13-.23-.25-.49-.51,0-.78-.29-4-.19.69v-1.7q.35-.28.69-.54h0a5.48,5.48,0,0,1,2-1l.55.91Z" transform="translate(-32.63 -185.71)"/><path class="cls-1" d="M72.44,204c0,.11,0,.23-.08.34h0c-.11.59-.24,1.17-.35,1.76h0v0a1.66,1.66,0,0,1-.06.16c0,.16-.12.33-.19.5a1.39,1.39,0,0,1-.06.19l0,0c-.09.28-.2.55-.32.83a.3.3,0,0,1,0,.1h0c-.08.2-.17.41-.26.59s-.08.17-.11.25-.1.2-.15.29-.09.16-.14.23a.52.52,0,0,1-.07.11,1.35,1.35,0,0,1-.12.12c-.07.06-.15.06-.19-.05a1.9,1.9,0,0,0-.17-.28h0a3.4,3.4,0,0,0-.27-.37,2.34,2.34,0,0,0-.24-.31c.09-.86.17-1.74.26-2.63.17-1.86.36-3.77.54-5.63.38.64.73,1.24,1,1.8S72.14,203.43,72.44,204Z" transform="translate(-32.63 -185.71)"/><path class="cls-1" d="M72,206.17v0a.09.09,0,0,1,0,0S72,206.18,72,206.17Z" transform="translate(-32.63 -185.71)"/><path class="cls-1" d="M74.62,213.86c0,.57,0,1.15,0,1.71L72,211.25l.07-2.12.11-3.55s0,0,0,0,0,0,0,0l0,.08a.3.3,0,0,1,0,.08,1.44,1.44,0,0,1-.08.26l0,.07c.11-.59.24-1.17.35-1.76.62,1.47,1.15,2.77,1.24,3,0,0,0,0,0,0,0,.15.08.32.13.49l.06.2c0,.11.06.22.1.34l.16.61a1.87,1.87,0,0,1,.07.22,0,0,0,0,0,0,0c0,.13.07.26.11.39l.32,1.14C74.59,211.85,74.62,212.87,74.62,213.86Z" transform="translate(-32.63 -185.71)"/><path class="cls-1" d="M73.6,207.4c-.09-.24-.62-1.54-1.24-3h0c0-.11,0-.23.08-.34a14.34,14.34,0,0,1,1,2.77C73.49,207,73.54,207.17,73.6,207.4Z" transform="translate(-32.63 -185.71)"/><path class="cls-1" d="M77.34,220.21l-.23-.37-2.52-4.26h0c0-.56,0-1.14,0-1.71,0-1,0-2-.05-3,.1.36.21.71.31,1.08l0,.1c.06.21.13.43.18.65s.13.45.2.67c.21.68.41,1.37.61,2,.08.29.16.57.25.83.15.54.31,1.05.45,1.52C77,219.05,77.29,220,77.34,220.21Z" transform="translate(-32.63 -185.71)"/><path class="cls-1" d="M92.49,216.17l-2.38,1.7-.08-.21C90.92,217.08,91.76,216.56,92.49,216.17Z" transform="translate(-32.63 -185.71)"/><path class="cls-1" d="M91.26,221.84l-.35-.05-.43,0-.5-.05-.67-.07c-.44-.05-.84-.08-1.16-.09H88a2.78,2.78,0,0,0-.55,0c-.59.1-2.38.49-3.83.8,0,0,0,0,0,0,.51-.4,3.66-2.8,6.47-4.65l.08.21v0c.09.26.17.52.25.78.17.59.34,1.18.5,1.77S91.12,221.38,91.26,221.84Z" transform="translate(-32.63 -185.71)"/><path class="cls-1" d="M101.22,215.78c0,.48,0,1,0,1.45s0,.93,0,1.39,0,.83-.06,1.24c0,.57,0,1.15-.06,1.73,0,.39,0,.78,0,1.17l-.6-.06-.47,0h0l-1.28-.08h-.1l-.63,0-.63,0h-.1l-.41,0-.17-1.7s-.59-5.22-.64-5.55c1.57-.19,3.6-.36,5.26-.49C101.21,215.09,101.22,215.44,101.22,215.78Z" transform="translate(-32.63 -185.71)"/><path class="cls-1" d="M109.88,220.72h0l-.84,2.92-.31,1.09h-.09l-.52-.15-.36-.1-.41-.11-.23-.06-.73-.2-.26-.07L106,224c-.07-.21-.15-.41-.23-.62s-.15-.41-.23-.62c-.33-.81-.68-1.62-1-2.45a16.18,16.18,0,0,1-.66-2.11l-.06-.28-.06-.28c0-.14,0-.29-.06-.42s0-.2,0-.3-.28-2.15-.28-2.29,0,2.79-.09,3.07l-.09.7c0,.2,0,.39-.06.59s0,.44-.06.66,0,.22,0,.33,0,.37,0,.56q0,.78-.06,1.56l-1.89-.49c0-.58,0-1.16.06-1.73,0-.41,0-.83.06-1.24s0-.92,0-1.39,0-1,0-1.45,0-.69,0-1l2.94-.22h0l1.26.66.08.05c1.09.66,2.78,1.69,4.48,2.82A14.09,14.09,0,0,0,109.88,220.72Z" transform="translate(-32.63 -185.71)"/><path class="cls-1" d="M101,221.59l1.89.49c0,.33,0,.66,0,1l-.11,0-.13,0-.17,0-.29-.05a.51.51,0,0,0-.17,0l-.22,0-.49-.06-.29,0C101,222.37,101,222,101,221.59Z" transform="translate(-32.63 -185.71)"/><path class="cls-1" d="M105.41,215.19l-1.26-.66h.12Z" transform="translate(-32.63 -185.71)"/><path class="cls-1" d="M118.6,229.19l-8-4L110.4,224l-.45-3.51-.07.23a14.09,14.09,0,0,1,.09-2.66l.6.41c1.19.81,2.35,1.65,3.27,2.42C117.12,223.64,118.6,229.19,118.6,229.19Z" transform="translate(-32.63 -185.71)"/><path class="cls-1" d="M87.77,231.88l-.14.25-.33.61-.35.58c-.23.39-.47.78-.71,1.15.08-.19.16-.33.18-.39l-2.24,2.83a99.15,99.15,0,0,1-3.55-9.38,6.62,6.62,0,0,1,.21-.95c0-.16.61-.14.67-.09.56.41,1.24.93,2,1.52l.53.44.54.45c.19.16.38.31.56.48.38.32.75.66,1.13,1s.85.81,1.26,1.22Z" transform="translate(-32.63 -185.71)"/><path class="cls-1" d="M93.2,237.85l-.32.21a29.79,29.79,0,0,0-5,3.46c-1.13-1.44-2.13-2.76-2.54-3.42a1.8,1.8,0,0,1-.1-.18.64.64,0,0,1-.1-.23.42.42,0,0,1,0-.16v-.08h0c0-.08,0-.18.06-.28s.07-.25.11-.39l.09-.27.14-.39c.23-.6.5-1.23.68-1.62,0,0,0,0,0,0,.24-.37.48-.76.71-1.15l.35-.58.33-.61.14-.25,1.34,1.4s0,0,0,0l.12.12.11.13h0l.07.07.24.27.1.09a1.45,1.45,0,0,0,.16.18c.11.12.22.25.33.36l.14.16.44.48.71.78.42.48.13.15.13.14.18.2.12.15.31.36a.19.19,0,0,1,.06.07h0a0,0,0,0,0,0,0l.06.08.06.07.06.07h0l0,0Z" transform="translate(-32.63 -185.71)"/><path class="cls-1" d="M89.35,243.36a22.49,22.49,0,0,0,3.85-5.52,35,35,0,0,0-5.31,3.67C88.36,242.12,88.87,242.75,89.35,243.36Z" transform="translate(-32.63 -185.71)"/><polygon class="cls-1" points="60.58 52.13 60.58 52.13 60.58 52.13 60.58 52.13"/><path class="cls-1" d="M98.78,245l-5.58-7.14h0a22.49,22.49,0,0,1-3.85,5.52c1.7,2.12,3.27,4,3.27,4l3.27-1v0C96.85,245.87,97.81,245.4,98.78,245Z" transform="translate(-32.63 -185.71)"/><path class="cls-1" d="M95.88,246.35l-2.35,2.42S96.85,245.87,95.88,246.35Z" transform="translate(-32.63 -185.71)"/><path class="cls-1" d="M49.3,208.16l-.31,0h-.17Z" transform="translate(-32.63 -185.71)"/><path class="cls-1" d="M53.9,208.57c-.08.29-.16.59-.25.89a.8.8,0,0,0,0,.15s0,0,0,.06a.42.42,0,0,0,0,.1c-2.33-.4-4.24-.69-4.73-.78h-.42a9,9,0,0,1,.41-.82H49l.31,0h0l.24,0,.79.06.38,0,1.21.1.29,0,.49.06.49,0,.21,0Z" transform="translate(-32.63 -185.71)"/><path class="cls-1" d="M48.83,209c.49.09,2.4.38,4.73.78-.29,1-.6,1.95-.92,2.92-.1.33-.22.65-.32,1s-.29.86-.43,1.29-.3.88-.44,1.33l-.4,1.33h0c-3.09.16-5.41.44-5.41.44l.75-2.5,1.48-5-.11.17a9.24,9.24,0,0,1,.41-1.15c.08-.2.16-.4.25-.59h.42Z" transform="translate(-32.63 -185.71)"/><path class="cls-1" d="M53.9,208.57c-.08.29-.15.59-.24.89a.42.42,0,0,0,0,.15.8.8,0,0,1,0-.15C53.74,209.16,53.82,208.86,53.9,208.57Z" transform="translate(-32.63 -185.71)"/><path class="cls-1" d="M66.07,211.85c0,.37-.07.74-.12,1.09a.5.5,0,0,1,0,.13c0,.23-.06.45-.1.67L63.93,217l-.84,1.43a15.51,15.51,0,0,0-2.42-.53c.18-.51.34-1,.5-1.53.49-1.61.9-3.25,1.25-4.89,0-.12.06-.24.09-.36.06-.32.13-.63.2-.94h0c.26.08.5.16.73.25a6.66,6.66,0,0,1,.67.26,8,8,0,0,1,1.1.57C65.48,211.42,65.78,211.62,66.07,211.85Z" transform="translate(-32.63 -185.71)"/><path class="cls-1" d="M54.23,208.6h0Z" transform="translate(-32.63 -185.71)"/><path class="cls-1" d="M58.87,209.27l-.2,0,.54.1Z" transform="translate(-32.63 -185.71)"/><path class="cls-1" d="M60.28,209.55l-.13,0,.53.12Z" transform="translate(-32.63 -185.71)"/><path class="cls-1" d="M54,209.84c2.84.48,6.2,1.1,8.44,1.63-.35,1.64-.76,3.28-1.25,4.89-.16.52-.32,1-.5,1.53a45.25,45.25,0,0,0-7.61-.34q.11-1.2.24-2.37h0C53.5,213.39,53.73,211.62,54,209.84Z" transform="translate(-32.63 -185.71)"/><path class="cls-1" d="M62.71,210.16h0l-.65-.19C62.28,210,62.5,210.1,62.71,210.16Z" transform="translate(-32.63 -185.71)"/><path class="cls-1" d="M54.15,208.59h0c0,.31-.08.61-.13.9,0,.11,0,.23,0,.34-.25,1.78-.48,3.55-.68,5.34h0q-.13,1.17-.24,2.37c-.7,0-1.36,0-2,.07h0c.13-.45.27-.89.41-1.33s.29-.89.44-1.33.28-.86.43-1.29.22-.65.32-1c.33-1,.64-1.94.92-2.92a.42.42,0,0,1,0-.1s0,0,0-.06a.8.8,0,0,1,0-.15c.09-.3.17-.6.25-.89Z" transform="translate(-32.63 -185.71)"/><path class="cls-1" d="M66.07,211.85c-.06.64-.13,1.27-.25,1.89l.1-.17-.71,5.73,6,1.85c-.58-2-1-4-1.49-6A39.21,39.21,0,0,0,66.07,211.85Z" transform="translate(-32.63 -185.71)"/><path class="cls-1" d="M77.32,223l-.71-.21-1-.32h0l-4.37-1.34c-.13-.44-.25-.89-.37-1.33-.07-.26-.13-.52-.2-.78s-.15-.6-.22-.9-.21-.89-.31-1.33a2.58,2.58,0,0,1-.09-.35l-.3-1.34.66.65c1,1,1.92,2,2.8,2.94l0,0,.08.09.49.53c.2.23.41.44.6.65l0,0,.36.39c.19.21.38.42.56.6a1.29,1.29,0,0,0,.15.17l.15.16q.15.18.3.33l.29.3.25.27.11.1.1.1,0,0,.29.27.15.14A.94.94,0,0,0,77.32,223Z" transform="translate(-32.63 -185.71)"/><path class="cls-1" d="M48.82,208.13h0a9,9,0,0,0-.41.82c-.09.19-.17.39-.25.59l-8.54,8.78,4.68-1.93L43,218.59s-8.86,2.13-9.93,2.86c-.08.05-.08,0,0-.08C34,220.1,45.63,208,45.63,208h1.22l.46,0,.24,0,1.13.06Z" transform="translate(-32.63 -185.71)"/><path class="cls-1" d="M50.05,238.3c-2.07,2.41-3.28,4.15-3.28,4.15s-2.49,7.61-.1,13.66a52,52,0,0,1,3.82-5A94.33,94.33,0,0,1,50.05,238.3Z" transform="translate(-32.63 -185.71)"/><path class="cls-1" d="M61.34,238.37c-1,.92-2.05,2-3,2.9-1.47,1.44-2.65,2.64-2.68,2.74l.78-9.72.15-1.93,1.54-1c.07.45.13.89.19,1.33l.24,1.48Z" transform="translate(-32.63 -185.71)"/><path class="cls-1" d="M58.33,241.27l0,3.66s-3.1.71-7.82,6.14l-.13-1.17h0l-.09-1s0-.11,0-.16,0-.39,0-.59,0-.39,0-.58a1.34,1.34,0,0,1,0-.2v0c0-.39-.05-.77-.07-1.16l0-.76v-.17c0-.1,0-.21,0-.31,0-.28,0-.54,0-.82s0-.8,0-1.19c0-.85,0-1.69,0-2.53,0-.19,0-.38,0-.57v-.74c0-.25,0-.51,0-.76.74-.86,1.59-1.81,2.54-2.8.15-.16.31-.34.47-.5.52-.53,1.06-1.06,1.62-1.6.23-.23.47-.44.7-.66.66-.6,1.34-1.21,2-1.8.19-.17.4-.33.6-.49,0,.3.07.61.09.93l-1.54,1-.15,1.93L55.65,244C55.68,243.91,56.86,242.71,58.33,241.27Z" transform="translate(-32.63 -185.71)"/><path class="cls-1" d="M65.59,237.07a20.44,20.44,0,0,0-2,4.73l-2.29-3.43-2.79-4.19-.24-1.48c1.17-1,2.35-1.89,3.46-2.72.43.84.88,1.68,1.32,2.52l.65,1.24c.24.42.45.83.68,1.24C64.8,235.68,65.19,236.38,65.59,237.07Z" transform="translate(-32.63 -185.71)"/><path class="cls-1" d="M67.43,234.19a27.18,27.18,0,0,0-1.84,2.88c-.4-.69-.79-1.39-1.17-2.09-.23-.41-.44-.82-.68-1.24l-.65-1.24c-.44-.84-.89-1.68-1.32-2.52l-.39-.72,1.18-.77.47.57c.45.52.9,1.05,1.34,1.58C65.38,231.83,66.4,233,67.43,234.19Z" transform="translate(-32.63 -185.71)"/><path class="cls-1" d="M62.56,228.49l-1.18.77c-.16-.32-.33-.64-.5-1,.26-.18.53-.35.8-.52a.24.24,0,0,1,.09-.06l.09-.06h0Z" transform="translate(-32.63 -185.71)"/><path class="cls-1" d="M64.37,230.64,63,229.06l-.47-.57,1.6-1s0,.3.06.79S64.32,229.7,64.37,230.64Z" transform="translate(-32.63 -185.71)"/><path class="cls-1" d="M73.81,228.16a25.18,25.18,0,0,0-6.38,6c-1-1.18-2.05-2.36-3.06-3.56-.05-.94-.11-1.81-.15-2.4s-.06-.79-.06-.79l-1.6,1-.7-.83h0c.51-.33,1-.64,1.56-.94l.69-.38.6-.3.84-.39.58-.25q.66-.27,1.29-.48l.45-.14.56-.17.54-.14.27-.07.56-.11,1.27,1.15c.6.56,1.19,1.13,1.77,1.72l.22.22Z" transform="translate(-32.63 -185.71)"/><path class="cls-1" d="M78.08,225.89l-.07,0a25.91,25.91,0,0,0-4.2,2.24l-.75-.78-.22-.22c-.58-.59-1.17-1.16-1.77-1.72l-1.27-1.15h0l.83-.14.42,0c.27,0,.54-.06.8-.08l.38,0c.31,0,.6,0,.89,0h.13l.69,0,.34,0,.41,0h0l.31,0,.08,0,.28,0,.24,0,.55.11.18,0,.45.12.13,0,.1,0,.91,1.29Z" transform="translate(-32.63 -185.71)"/><path class="cls-1" d="M62.71,210.17c-.07.31-.14.62-.2.94,0,.12,0,.24-.09.36-2.24-.53-5.6-1.15-8.44-1.63,0-.11,0-.23,0-.34,0-.29.09-.59.13-.9h.08l1.24.15,1.22.16.86.13.6.1.52.09.2,0,.34.06.36.07.39.08a.58.58,0,0,1,.19,0l.13,0,.4.08h0l.06,0c.35.08.67.15,1,.24a1.38,1.38,0,0,1,.27.08Z" transform="translate(-32.63 -185.71)"/><path class="cls-1" d="M48.82,208.14a9,9,0,0,0-.41.82l-2.33-.2-13,12.69v-.08C34,220.1,45.63,208,45.63,208h1.22l.46,0,.24,0,1.13.06Z" transform="translate(-32.63 -185.71)"/><path class="cls-1" d="M54.15,208.6c0,.31-.08.61-.13.9l-.36,0h0c.09-.3.17-.6.25-.89Z" transform="translate(-32.63 -185.71)"/><path class="cls-1" d="M61.82,209.9l.24.08a1.38,1.38,0,0,0-.27-.08Z" transform="translate(-32.63 -185.71)"/><path class="cls-1" d="M77.31,223l-.7-.21-1-.32h0l-1.15-1.29L72,218.52h0c-.64-.69-1.31-1.39-2-2a23.58,23.58,0,0,0-3.13-2.89c-.32-.21-.63-.41-.94-.63l-1.08-.7a.61.61,0,0,0-.14-.07,11.53,11.53,0,0,0-2.22-1.06c.06-.32.13-.63.2-.94.26.08.5.15.73.24l.67.26a8,8,0,0,1,1.1.57c.27.18.57.38.86.61s.55.44.85.69c.45.37.91.78,1.39,1.23l.57.52.37.36,1.13,1.12c1,1,1.92,2,2.8,2.93l0,.06.08.09.49.53.61.66h0l.35.39.56.61.15.16c.05,0,.09.11.15.16a3.26,3.26,0,0,0,.31.33c.09.11.19.2.27.3a3.25,3.25,0,0,1,.26.27l.11.1.1.1,0,0,.29.27s.11.09.15.14Z" transform="translate(-32.63 -185.71)"/><path class="cls-1" d="M61.77,230c-1.11.83-2.29,1.76-3.46,2.72-.06-.44-.12-.88-.19-1.33s-.06-.63-.09-.93c.22-.19.46-.37.69-.55.42-.33.85-.65,1.28-1,.22-.17.45-.32.67-.48s.14-.09.21-.15c.17.32.34.64.5,1Z" transform="translate(-32.63 -185.71)"/><path class="cls-1" d="M58,230.44c0,.3.07.61.09.93l-1.54,1-.15,1.93a79,79,0,0,0-6.4,6.07,25,25,0,0,0-1.79,2.15c-2.18,4.64-1.57,13.6-1.57,13.6-2.39-6.05.11-13.66.11-13.66h0s0,0,0,0l0,0s0,0,0-.06a.23.23,0,0,0,.07-.07l.08-.11.1-.14,0,0,.07-.11a3.08,3.08,0,0,1,.2-.26.58.58,0,0,1,.11-.15c.12-.17.25-.34.4-.53l.1-.13a.64.64,0,0,0,.1-.13c.08-.11.18-.22.28-.34.46-.59,1-1.28,1.67-2s1.59-1.81,2.54-2.8c.15-.16.31-.34.47-.5.52-.53,1.06-1.06,1.62-1.6.23-.23.47-.44.7-.66.66-.6,1.34-1.21,2-1.8C57.62,230.76,57.83,230.6,58,230.44Z" transform="translate(-32.63 -185.71)"/><path class="cls-1" d="M78,225.82c-1.09-.54-3.87-.83-6.88-.38a18.33,18.33,0,0,0-3,.71,18,18,0,0,0-3.81,2.09c0-.49-.06-.78-.06-.78l-1.6,1-1.18.77c-.16-.32-.33-.64-.5-1,.26-.18.53-.35.8-.52a.24.24,0,0,1,.09-.06l.09-.06h0c.51-.32,1-.64,1.56-.94.23-.14.46-.26.7-.38l.58-.3.84-.39c.2-.09.39-.17.59-.24.44-.18.87-.35,1.29-.49a3.36,3.36,0,0,1,.45-.14l.56-.17.55-.14.26-.07.56-.11h0l.83-.14.41,0a7.65,7.65,0,0,1,.81-.08l.38,0,.75,0h.26l.69,0h.34l.41,0h0l.31,0,.08,0,.28,0,.24,0,.49.09.06,0,.18,0,.45.11.12,0,.1,0h0Z" transform="translate(-32.63 -185.71)"/><path class="cls-1" d="M118.59,229.19l-8-4L110.4,224l-.45-3.52-.07.23a14,14,0,0,1,.09-2.66c-1.69-1.13-3.39-2.17-4.48-2.82l-.08-.05-1.27-.66-1.08.07-1.86.14c-1.67.14-3.69.31-5.26.5-.75.08-1.4.17-1.85.26a6,6,0,0,0-1.6.67l-2.38,1.7a.13.13,0,0,0,0,.06c.09.26.17.51.24.77.19.59.34,1.18.51,1.77s.26.92.39,1.36a2,2,0,0,1-.35,0l-.42,0-.51-.06-.67-.07-1.16-.1H88a2.17,2.17,0,0,0-.55,0l-.66.13-.38.08h-.09l-.46.1-1.18.25-1.06.23h-.09a6.19,6.19,0,0,0-2.37,2.8,84.65,84.65,0,0,1,9,2.75c-.22.09-.45.2-.66.31l-.38.21a5.06,5.06,0,0,0-.46.27,3.76,3.76,0,0,0-.47.3c-.16.09-.31.2-.46.3l-.18.12-.17.13c-.19.13-.37.27-.54.4a92.45,92.45,0,0,1,7.13,7.89l.65.87h0c1.18,1.55,2.66,3.54,4.13,5.57l0,0s0,0,0,.05c2.87,3.92,5.73,7.88,6.3,8.69l0,0-.06-.06A.7.7,0,0,1,105,253a.73.73,0,0,1-.08-.09l-.18-.23c-1-1.23-3.62-4.36-6.21-7.54-2.12-2.61-4.26-5.24-5.53-6.87h0c0-.05-.07-.11-.11-.15h0c-.47-.61-.82-1.06-1-1.3a35.21,35.21,0,0,0-4.27-4.62l.14-.25-.26-.26c-.41-.43-.84-.83-1.26-1.23s-.75-.68-1.13-1c-.19-.18-.38-.33-.56-.49l-.54-.45-.53-.43c-.74-.6-1.42-1.12-2-1.52-.06-.06-.62-.08-.67.08a8.83,8.83,0,0,0-.21.95,3.55,3.55,0,0,0-.08.47,4.06,4.06,0,0,0,0,.61l1.59,20.7a28.43,28.43,0,0,0-1.27-2.8c0-.16,0-.33,0-.49a4.43,4.43,0,0,0,0-.52c0-.73-.08-1.51-.14-2.33,0-.41-.06-.82-.1-1.24h0c0-.31,0-.63-.07-.95l-.09-1v0c0-.56-.1-1.11-.16-1.66,0-.24,0-.47-.06-.71-.37-3.52-.71-6.43-.71-6.43a.67.67,0,0,0,0-.1,1,1,0,0,0,0-.16c0-.37-.1-1.07-.23-1.85a10.66,10.66,0,0,0-.68-2.39l-.54-.75-.06-.1-.92-1.3h0l-1.44-2,1,.32.7.21,0,0,1,1.21-1-4h0v0c0-.2-.35-1.16-.74-2.49-.14-.47-.3-1-.45-1.52-.09-.26-.17-.54-.25-.83-.2-.65-.4-1.34-.61-2-.07-.22-.13-.45-.2-.67s-.12-.44-.18-.65l0-.1c-.1-.37-.21-.72-.31-1.08l-.32-1.14c0-.13-.08-.26-.11-.39a0,0,0,0,1,0,0,1.87,1.87,0,0,0-.07-.22l-.16-.61c0-.12-.07-.23-.1-.34l-.06-.2c0-.17-.09-.34-.13-.49,0,0,0,0,0,0-.06-.23-.11-.42-.14-.59a14.34,14.34,0,0,0-1-2.77c-.3-.61-.64-1.24-1-1.91l-1-2.49a2.68,2.68,0,0,0-.73-.51l-.55-.91a5.48,5.48,0,0,0-2,1h0a4.79,4.79,0,0,0-1.39,1.16h0a47.24,47.24,0,0,0-5.76,6.82c.17-.3.74-1.2,2.53-4.12a16.65,16.65,0,0,1,6.59-6,28,28,0,0,1,4.61,7.34c1.76,4.05,4.08,14.8,4.66,17.17l1.33,3.58a.52.52,0,0,0,.12.07l.55-3.86.11-.05c.16-.06.4-.15.71-.3l-.32,2.53a5.16,5.16,0,0,1,.73-.76c.07-.06,2.46-2.24,5.26-4.4s6-4.32,7.69-4.37c3.4-.08,10.3-1,10.84,0s9.2,4.7,11.24,8.77S118.59,229.19,118.59,229.19Z" transform="translate(-32.63 -185.71)"/><path class="cls-1" d="M103.34,215.72" transform="translate(-32.63 -185.71)"/><path class="cls-2" d="M202.27,209.87h-2.44v10.25h1.95v1.46h-1.95v11.71h2.44v1.46h-4.39V208.41h4.39Z" transform="translate(-32.63 -185.71)"/><path class="cls-2" d="M219,219.14H217v-8.29c0-.13,0-.26,0-.4a1,1,0,0,0-.1-.39.83.83,0,0,0-.29-.3,1.1,1.1,0,0,0-.57-.12,1.08,1.08,0,0,0-.56.12.83.83,0,0,0-.29.3,1,1,0,0,0-.11.39c0,.14,0,.27,0,.4v21.46c0,.12,0,.27,0,.44a1.67,1.67,0,0,0,.11.48.9.9,0,0,0,.29.38.85.85,0,0,0,.56.16.86.86,0,0,0,.57-.16.9.9,0,0,0,.29-.38,1.65,1.65,0,0,0,.1-.48c0-.17,0-.32,0-.44v-9.76h-.49v-1.46H219v11.22c0,.12,0,.34,0,.66a2.66,2.66,0,0,1-.32,1,2.72,2.72,0,0,1-.87.89,3.88,3.88,0,0,1-3.39,0,2.72,2.72,0,0,1-.87-.89,2.66,2.66,0,0,1-.32-1c0-.32,0-.54,0-.66V210.85c0-.09,0-.21,0-.37a3,3,0,0,1,.09-.54,2.43,2.43,0,0,1,.26-.61,1.94,1.94,0,0,1,.51-.57,2.18,2.18,0,0,1,.82-.42,4.85,4.85,0,0,1,2.47,0,2.26,2.26,0,0,1,.82.42,2.1,2.1,0,0,1,.51.57,2.94,2.94,0,0,1,.35,1.15c0,.16,0,.28,0,.37Z" transform="translate(-32.63 -185.71)"/><path class="cls-2" d="M234.17,208.41l-2.45,24.88h2.45v1.46h-4.39l2.46-24.88h-2.46v-1.46Z" transform="translate(-32.63 -185.71)"/><path class="cls-2" d="M250.86,232.31c0,.12,0,.34-.05.66a2.66,2.66,0,0,1-.32,1,2.53,2.53,0,0,1-.87.89,3.86,3.86,0,0,1-3.38,0,2.53,2.53,0,0,1-.87-.89,2.49,2.49,0,0,1-.32-1c0-.32-.05-.54-.05-.66V210.85c0-.09,0-.21,0-.37a3,3,0,0,1,.09-.54,2.43,2.43,0,0,1,.26-.61,2.05,2.05,0,0,1,.5-.57,2.26,2.26,0,0,1,.82-.42,4.06,4.06,0,0,1,1.24-.16,4,4,0,0,1,1.23.16,2.31,2.31,0,0,1,.83.42,2.05,2.05,0,0,1,.5.57,2.43,2.43,0,0,1,.26.61,3,3,0,0,1,.09.54c0,.16,0,.28,0,.37Zm-3.91,0c0,.12,0,.27,0,.44a1.39,1.39,0,0,0,.11.48.83.83,0,0,0,.29.38,1.06,1.06,0,0,0,1.12,0,.83.83,0,0,0,.29-.38,1.67,1.67,0,0,0,.11-.48c0-.17,0-.32,0-.44V210.85c0-.13,0-.26,0-.4a1,1,0,0,0-.11-.39.75.75,0,0,0-.29-.3,1.37,1.37,0,0,0-1.12,0,.75.75,0,0,0-.29.3.88.88,0,0,0-.11.39c0,.14,0,.27,0,.4Z" transform="translate(-32.63 -185.71)"/><path class="cls-2" d="M267.54,208.41v1.46h-2v24.88h-1.95V209.87h-1.95v-1.46Z" transform="translate(-32.63 -185.71)"/><path class="cls-2" d="M280.32,215.24l.49,6.83.78-6.8.2-6.86h1.95l-1.95,17.07v9.27h-2v-9.27l-1.95-17.07h1.95Z" transform="translate(-32.63 -185.71)"/><path class="cls-2" d="M300.42,219.14h-1.95v-8.29a2,2,0,0,0-.08-.61,1,1,0,0,0-.22-.36.8.8,0,0,0-.32-.19,1.34,1.34,0,0,0-.35-.05,1.36,1.36,0,0,0-.36.05.77.77,0,0,0-.31.19.86.86,0,0,0-.23.36,2,2,0,0,0-.08.61v21.46a3.63,3.63,0,0,0,0,.44,1.37,1.37,0,0,0,.1.48.9.9,0,0,0,.29.38.86.86,0,0,0,.57.16.85.85,0,0,0,.56-.16.9.9,0,0,0,.29-.38,1.67,1.67,0,0,0,.11-.48c0-.17,0-.32,0-.44V222.07h1.95v10.24c0,.12,0,.34,0,.66a2.66,2.66,0,0,1-.32,1,2.72,2.72,0,0,1-.87.89,3.88,3.88,0,0,1-3.39,0,2.72,2.72,0,0,1-.87-.89,2.66,2.66,0,0,1-.32-1c0-.32,0-.54,0-.66V210.85a2.58,2.58,0,0,1,.26-1.22,2.41,2.41,0,0,1,.68-.83,2.91,2.91,0,0,1,.93-.47,3.82,3.82,0,0,1,1.06-.15,3.36,3.36,0,0,1,1.09.17,2.78,2.78,0,0,1,.93.5,2.29,2.29,0,0,1,.66.84,2.64,2.64,0,0,1,.24,1.16Z" transform="translate(-32.63 -185.71)"/><path class="cls-2" d="M315.64,208.41l-2.45,24.88h2.45v1.46h-4.39l2.46-24.88h-2.46v-1.46Z" transform="translate(-32.63 -185.71)"/><path class="cls-2" d="M332.33,234.75h-1.95l-2.44-19.55v19.55h-1.47V208.41h1.95L330.86,228V208.41h1.47Z" transform="translate(-32.63 -185.71)"/><path class="cls-2" d="M348,209.87H345.6v10.25h1.95v1.46H345.6v11.71H348v1.46h-4.39V208.41H348Z" transform="translate(-32.63 -185.71)"/><path class="cls-2" d="M377.7,232.31c0,.12,0,.34,0,.66a2.52,2.52,0,0,1-.33,1,2.59,2.59,0,0,1-.86.89,3.88,3.88,0,0,1-3.39,0,2.72,2.72,0,0,1-.87-.89,2.66,2.66,0,0,1-.32-1c0-.32,0-.54,0-.66V210.85c0-.09,0-.21,0-.37a3,3,0,0,1,.09-.54,2.43,2.43,0,0,1,.26-.61,1.94,1.94,0,0,1,.51-.57,2.18,2.18,0,0,1,.82-.42,4,4,0,0,1,1.23-.16,4.06,4.06,0,0,1,1.24.16,2.26,2.26,0,0,1,.82.42,2.05,2.05,0,0,1,.5.57,2.11,2.11,0,0,1,.26.61,3.13,3.13,0,0,1,.1.54c0,.16,0,.28,0,.37Zm-3.9,0c0,.12,0,.27,0,.44a1.67,1.67,0,0,0,.11.48.9.9,0,0,0,.29.38.85.85,0,0,0,.56.16.86.86,0,0,0,.57-.16.9.9,0,0,0,.29-.38,1.65,1.65,0,0,0,.1-.48c0-.17,0-.32,0-.44V210.85c0-.13,0-.26,0-.4a1,1,0,0,0-.1-.39.83.83,0,0,0-.29-.3,1.1,1.1,0,0,0-.57-.12,1.08,1.08,0,0,0-.56.12.83.83,0,0,0-.29.3,1,1,0,0,0-.11.39c0,.14,0,.27,0,.4Z" transform="translate(-32.63 -185.71)"/><path class="cls-2" d="M394.87,219.14h-1.95v-8.29c0-.13,0-.26,0-.4a1,1,0,0,0-.11-.39.83.83,0,0,0-.29-.3,1.08,1.08,0,0,0-.56-.12,1.1,1.1,0,0,0-.57.12.83.83,0,0,0-.29.3,1,1,0,0,0-.1.39,2.75,2.75,0,0,0,0,.4v21.46a3.63,3.63,0,0,0,0,.44,1.65,1.65,0,0,0,.1.48.9.9,0,0,0,.29.38.86.86,0,0,0,.57.16.85.85,0,0,0,.56-.16.9.9,0,0,0,.29-.38,1.67,1.67,0,0,0,.11-.48c0-.17,0-.32,0-.44v-9.76h-.49v-1.46h2.44v11.22c0,.12,0,.34,0,.66a2.66,2.66,0,0,1-.32,1,2.72,2.72,0,0,1-.87.89,3.88,3.88,0,0,1-3.39,0,2.72,2.72,0,0,1-.87-.89,2.66,2.66,0,0,1-.32-1c0-.32,0-.54,0-.66V210.85c0-.09,0-.21,0-.37a2.94,2.94,0,0,1,.35-1.15,2.1,2.1,0,0,1,.51-.57,2.26,2.26,0,0,1,.82-.42,4.85,4.85,0,0,1,2.47,0,2.18,2.18,0,0,1,.82.42,2.1,2.1,0,0,1,.51.57,2.86,2.86,0,0,1,.26.61,3,3,0,0,1,.09.54c0,.16,0,.28,0,.37Z" transform="translate(-32.63 -185.71)"/><path class="cls-2" d="M412.05,219.14a2.39,2.39,0,0,1-.37,1.52,1.35,1.35,0,0,1-1.1.43,1.2,1.2,0,0,1,.64.17,1.38,1.38,0,0,1,.46.44,2,2,0,0,1,.27.63,2.44,2.44,0,0,1,.1.71v11.71h-2v-12.2a.85.85,0,0,0-.16-.56,1,1,0,0,0-.45-.29,2.29,2.29,0,0,0-.62-.11h-.72v13.17h-1.95V208.41h1.95q.74,0,1.44,0a4,4,0,0,1,1.25.27,2,2,0,0,1,.88.73,2.53,2.53,0,0,1,.34,1.41Zm-2-8.29a1.41,1.41,0,0,0-.09-.57.63.63,0,0,0-.33-.29,2,2,0,0,0-.6-.1l-.93,0V220.6h.72a2.29,2.29,0,0,0,.62-.11,1,1,0,0,0,.45-.29.85.85,0,0,0,.16-.56Z" transform="translate(-32.63 -185.71)"/><path class="cls-2" d="M429.22,232.31c0,.12,0,.34-.05.66a2.66,2.66,0,0,1-.32,1,2.53,2.53,0,0,1-.87.89,3.86,3.86,0,0,1-3.38,0,2.53,2.53,0,0,1-.87-.89,2.66,2.66,0,0,1-.32-1c0-.32-.05-.54-.05-.66V210.85c0-.09,0-.21,0-.37a3,3,0,0,1,.09-.54,2.43,2.43,0,0,1,.26-.61,2.05,2.05,0,0,1,.5-.57,2.31,2.31,0,0,1,.83-.42,4,4,0,0,1,1.23-.16,4.06,4.06,0,0,1,1.24.16,2.35,2.35,0,0,1,.82.42,2.05,2.05,0,0,1,.5.57,2.43,2.43,0,0,1,.26.61,3,3,0,0,1,.09.54c0,.16,0,.28,0,.37Zm-3.91,0c0,.12,0,.27,0,.44a1.67,1.67,0,0,0,.11.48.83.83,0,0,0,.29.38,1.06,1.06,0,0,0,1.12,0,.83.83,0,0,0,.29-.38,1.39,1.39,0,0,0,.11-.48c0-.17,0-.32,0-.44V210.85c0-.13,0-.26,0-.4a.88.88,0,0,0-.11-.39.75.75,0,0,0-.29-.3,1.37,1.37,0,0,0-1.12,0,.75.75,0,0,0-.29.3,1,1,0,0,0-.11.39c0,.14,0,.27,0,.4Z" transform="translate(-32.63 -185.71)"/><path class="cls-2" d="M446.39,232.31a2.45,2.45,0,0,1-.34,1.41,2,2,0,0,1-.88.73,3.7,3.7,0,0,1-1.25.26c-.47,0-.94,0-1.43,0h-1.95V208.41h1.95c.49,0,1,0,1.43,0a4,4,0,0,1,1.25.27,1.9,1.9,0,0,1,.88.73,2.45,2.45,0,0,1,.34,1.41Zm-1.95-21.46a1.24,1.24,0,0,0-.1-.57A.59.59,0,0,0,444,210a1.86,1.86,0,0,0-.6-.1l-.92,0v23.42l.92,0a1.61,1.61,0,0,0,.6-.11.58.58,0,0,0,.33-.28,1.27,1.27,0,0,0,.1-.57Z" transform="translate(-32.63 -185.71)"/><path class="cls-2" d="M459.66,215.24l.49,6.83.77-6.8.2-6.86h1.95l-1.95,17.07v9.27h-1.95v-9.27l-1.95-17.07h1.95Z" transform="translate(-32.63 -185.71)"/><path d="M276.89,249.77a16.69,16.69,0,0,1,2.7-.21,4.42,4.42,0,0,1,3.06.91,2.92,2.92,0,0,1,1,2.28,3.21,3.21,0,0,1-.84,2.33,4.55,4.55,0,0,1-3.34,1.2,4.85,4.85,0,0,1-1.13-.1v4.37h-1.41ZM278.3,255a4.69,4.69,0,0,0,1.16.12c1.7,0,2.74-.83,2.74-2.34s-1-2.13-2.58-2.13a6.21,6.21,0,0,0-1.32.11Z" transform="translate(-32.63 -185.71)"/><path d="M286.92,249.64v10.91h-1.41V249.64Z" transform="translate(-32.63 -185.71)"/><path d="M298.7,255c0,3.76-2.28,5.75-5.06,5.75s-4.91-2.23-4.91-5.54c0-3.46,2.15-5.73,5.07-5.73S298.7,251.75,298.7,255Zm-8.46.18c0,2.33,1.26,4.42,3.48,4.42s3.49-2.05,3.49-4.53c0-2.17-1.13-4.44-3.48-4.44S290.24,252.77,290.24,255.16Z" transform="translate(-32.63 -185.71)"/><path d="M302.21,250.84h-3.32v-1.2H307v1.2h-3.34v9.71h-1.42Z" transform="translate(-32.63 -185.71)"/><path d="M310,249.79a14.24,14.24,0,0,1,2.7-.23,4.49,4.49,0,0,1,3.16.89,2.73,2.73,0,0,1,.86,2.07,2.88,2.88,0,0,1-2.06,2.79v.05a2.69,2.69,0,0,1,1.6,2.2,17.09,17.09,0,0,0,.85,3h-1.46a13.81,13.81,0,0,1-.73-2.6c-.32-1.51-.91-2.08-2.18-2.12h-1.33v4.72H310Zm1.41,5h1.44c1.5,0,2.46-.83,2.46-2.07,0-1.41-1-2-2.51-2.05a6,6,0,0,0-1.39.13Z" transform="translate(-32.63 -185.71)"/><path d="M329.66,255c0,3.76-2.28,5.75-5.07,5.75s-4.9-2.23-4.9-5.54c0-3.46,2.15-5.73,5.06-5.73S329.66,251.75,329.66,255Zm-8.47.18c0,2.33,1.27,4.42,3.48,4.42s3.5-2.05,3.5-4.53c0-2.17-1.13-4.44-3.48-4.44S321.19,252.77,321.19,255.16Z" transform="translate(-32.63 -185.71)"/><path d="M339.8,260.07a10.34,10.34,0,0,1-3.35.6,5.12,5.12,0,0,1-5.6-5.51c0-3.25,2.25-5.63,5.91-5.63a6.71,6.71,0,0,1,2.72.5l-.34,1.15a5.66,5.66,0,0,0-2.41-.47,4.08,4.08,0,0,0-4.39,4.39c0,2.77,1.66,4.4,4.21,4.4a4.68,4.68,0,0,0,1.88-.29V256h-2.22v-1.14h3.59Z" transform="translate(-32.63 -185.71)"/><path d="M343.37,249.64v10.91H342V249.64Z" transform="translate(-32.63 -185.71)"/><path d="M355.16,255c0,3.76-2.28,5.75-5.07,5.75s-4.9-2.23-4.9-5.54c0-3.46,2.15-5.73,5.06-5.73S355.16,251.75,355.16,255Zm-8.47.18c0,2.33,1.26,4.42,3.48,4.42s3.5-2.05,3.5-4.53c0-2.17-1.13-4.44-3.48-4.44S346.69,252.77,346.69,255.16Z" transform="translate(-32.63 -185.71)"/><path d="M357.06,260.55v-4.37l-1.36,1v-1.11l1.36-1v-5.46h1.41v4.49l2.17-1.58v1.12l-2.17,1.56v4.14h4.66v1.18Z" transform="translate(-32.63 -185.71)"/><path d="M364.7,249.79a20.14,20.14,0,0,1,3-.23,6.27,6.27,0,0,1,4.42,1.36,5,5,0,0,1,1.54,3.92,5.76,5.76,0,0,1-1.57,4.24,6.74,6.74,0,0,1-4.83,1.57,23.14,23.14,0,0,1-2.56-.13Zm1.41,9.65a9.62,9.62,0,0,0,1.43.08c3,0,4.64-1.69,4.64-4.63,0-2.58-1.44-4.21-4.42-4.21a8.11,8.11,0,0,0-1.65.14Z" transform="translate(-32.63 -185.71)"/><path d="M377,257.12l-1.13,3.43h-1.46l3.71-10.91h1.7l3.72,10.91h-1.5l-1.17-3.43Zm3.58-1.1-1.07-3.14c-.24-.71-.4-1.36-.57-2h0c-.16.65-.34,1.31-.55,2L377.32,256Z" transform="translate(-32.63 -185.71)"/><line class="cls-3" x1="125.09" y1="23.85" x2="125.09" y2="73.65"/></svg>