<svg id="Warstwa_1" data-name="Warstwa 1" xmlns="http://www.w3.org/2000/svg" viewBox="0 0 443.9 85.41"><defs><style>.cls-1,.cls-3{fill:none;stroke:#232323;stroke-miterlimit:10;}.cls-1{stroke-width:0.75px;}.cls-2{fill:#232323;}</style></defs><title>website_logo</title><path class="cls-1" d="M59,214.58c-.16,1.63-.32,3.32-.48,5-.07.79-.15,1.57-.23,2.32l-.35-.42a1.45,1.45,0,0,0-.17-.19l-.48-.55-.26-.3-.13-.13s0,0-.05-.06c.21-.61.4-1.2.6-1.81.45-1.42.87-2.82,1.28-4.27Z" transform="translate(-25.63 -201.49)"/><path class="cls-1" d="M55.63,215l.26,3.54-1.2.07-2.45.17a20.57,20.57,0,0,1,2.61-4.12h0a4.19,4.19,0,0,1,1.23-1c-.2.15-.41.31-.61.48v1.49Z" transform="translate(-25.63 -201.49)"/><path class="cls-1" d="M60.77,218.16c-.1.52-.21,1-.31,1.55a.14.14,0,0,0,0-.06,2.16,2.16,0,0,0,.08-.23l0-.07a.19.19,0,0,0,0-.07.08.08,0,0,1,0,0s0,0,0,0l-.1,3.14-.7-1h0l-1.3-1.82c.16-1.64.32-3.33.48-5l-.27-.45-.37-.62A2.32,2.32,0,0,1,59,214s.42,1,.92,2.21c.26.63.56,1.32.83,2Z" transform="translate(-25.63 -201.49)"/><path class="cls-1" d="M39,223.73l.09-.15L37.81,228l-1.83.74-4.13,1.7,7.54-7.76A8.8,8.8,0,0,0,39,223.73Z" transform="translate(-25.63 -201.49)"/><path class="cls-1" d="M63.13,233.16a2.68,2.68,0,0,1-.54-.15c-.66-.24-1.84-.69-3.17-1.22-1.6-.64-3.42-1.39-4.78-1.95l-1.32-.55-.74-.31-1.7-.25-6.94-1h0l-1.25-.2-2.62-.39-2.24.93,1.3-4.45-.09.16a8.33,8.33,0,0,1,.36-1l.49-.5H40c.42.08,2.11.34,4.18.69l.36.06c2.51.43,5.48,1,7.46,1.45h0a9.8,9.8,0,0,1,2,.61.37.37,0,0,1,.12.07c.2.13.52.39.93.73h0c.94.8,2.31,2,3.68,3.28h0l1.64,1.5h0C61.88,232,63,233.05,63.13,233.16Z" transform="translate(-25.63 -201.49)"/><path class="cls-1" d="M53.75,245.18c0,.5-1.48,1.84-2.72,3l-2.46-3.7c-.07-.43-.14-.86-.21-1.31,1-.84,2.07-1.66,3.06-2.4.38.75.77,1.49,1.16,2.23l.58,1.1Z" transform="translate(-25.63 -201.49)"/><path class="cls-1" d="M68.27,255.36a18.37,18.37,0,0,0-2-3.09l.8-10.23,0-.87C67.08,241.62,68.13,250.85,68.27,255.36Z" transform="translate(-25.63 -201.49)"/><path class="cls-1" d="M68.15,264.48c-.05.69-.1,1.37-.16,2.06-.77,6.66-1.54,13.33-1.79,20H63.61l2.33-30.33A40.33,40.33,0,0,1,68.15,264.48Z" transform="translate(-25.63 -201.49)"/><path class="cls-1" d="M68.15,264.48c1.16,7.14.82,14.65.66,22H66.2c.25-6.66,1-13.33,1.79-20C68.05,265.85,68.1,265.17,68.15,264.48Z" transform="translate(-25.63 -201.49)"/><path class="cls-1" d="M74.18,210.24c-1.1,1.18-2.13,2.26-2.13,2.26l-.2,6.2a7.29,7.29,0,0,0,.81.94c.75-1.69,1.43-3.18,1.79-3.83s1-1.6,2-2.95C75.75,212,74.85,211.2,74.18,210.24Z" transform="translate(-25.63 -201.49)"/><path class="cls-1" d="M84,202.9s-6.92,4-7.16,4.42c-.07.11-.51.61-1.1,1.25.41,1.22.83,2.45,1.17,3.69C79.78,208.36,84,202.9,84,202.9Z" transform="translate(-25.63 -201.49)"/><path class="cls-1" d="M75.74,208.57l-1.56,1.67c.67,1,1.57,1.76,2.29,2.62l.44-.6C76.57,211,76.15,209.79,75.74,208.57Z" transform="translate(-25.63 -201.49)"/><path class="cls-1" d="M72.66,219.64a7.29,7.29,0,0,1-.81-.94v.12l-2.16-3.58a27.54,27.54,0,0,0-2.14,6.29c.82,1.32,1.76,2.56,2.69,3.78C70.88,223.77,71.82,221.57,72.66,219.64Z" transform="translate(-25.63 -201.49)"/><path class="cls-1" d="M70.23,225.31c-.09.23-.18.44-.26.63h0l-.22.52c-.18.42-.29.7-.33.8a0,0,0,0,0,0,0h0v0a.21.21,0,0,0,0,.06l-1.51,5.73-.1,0h0A106.06,106.06,0,0,1,67.47,222c0-.15,0-.31.07-.47.19.31.4.62.61.93l0,0c.19.29.39.57.59.85l.07.11.6.8c.21.29.44.59.66.88Z" transform="translate(-25.63 -201.49)"/><path class="cls-1" d="M78.23,220l-2.48-2.39h0a16.48,16.48,0,0,0-2.23.06c-.73,1.59-1.67,3.76-2.47,5.64h5.08C77.29,221.49,78.23,220,78.23,220Z" transform="translate(-25.63 -201.49)"/><path class="cls-1" d="M73.93,227c-.35.6-.68,1.18-1,1.71a10,10,0,0,1-4.47,4.12l-.63.27,1.51-5.73a.21.21,0,0,1,0-.06v0h0a0,0,0,0,1,0,0c0-.1.15-.38.33-.8l.22-.52h0c.26,0,.51.1.76.16l.4.11.41.12A23.13,23.13,0,0,0,73.93,227Z" transform="translate(-25.63 -201.49)"/><path class="cls-1" d="M71.06,223.35,70,225.94c1.39.22,2.62.82,4,1.08.71-1.22,1.5-2.52,2.21-3.67Z" transform="translate(-25.63 -201.49)"/><path class="cls-1" d="M74.45,215.81c-.22.38-.54,1.06-.92,1.9a16.48,16.48,0,0,1,2.23-.06l4-.78,1.52-2.39a32.57,32.57,0,0,1-4-2.68C75.91,213.62,74.8,215.17,74.45,215.81Z" transform="translate(-25.63 -201.49)"/><path class="cls-1" d="M84,202.9s-3.49,4.52-6.28,8.27a15,15,0,0,0,4.7,1.22Z" transform="translate(-25.63 -201.49)"/><path class="cls-1" d="M82.42,212.39a15,15,0,0,1-4.7-1.22l-.46.63a32.57,32.57,0,0,0,4,2.68l1.13-1.76Z" transform="translate(-25.63 -201.49)"/><path class="cls-1" d="M83.65,244.33Q82,246.4,80.4,248.47c-.1.13-.2.27-.31.4l-.91-1.16-.05-.07,0,0h0l0-.06-.06-.07a.15.15,0,0,1,0-.06s0,0,0,0l-.07-.07c-.07-.09-.17-.19-.27-.32l-.11-.12-.16-.19a.65.65,0,0,1-.11-.12,1.42,1.42,0,0,0-.12-.13l-.37-.42-.62-.69-.39-.43-.13-.13c-.09-.11-.19-.21-.29-.32l-.15-.16-.3-.32,0-.06-.11-.11-.11-.12c-.37-.4-.77-.81-1.18-1.24-.08-.08-.15-.16-.23-.23-.37-.37-.74-.74-1.12-1.09l.5-.39.47-.35.16-.11a.91.91,0,0,1,.16-.11l.4-.27.41-.26.41-.24.34-.18.58-.28a4.71,4.71,0,0,1,.89.42l1.4,1-1,3.65L81,241.51A35.81,35.81,0,0,0,83.65,244.33Z" transform="translate(-25.63 -201.49)"/><path class="cls-1" d="M84.15,253.3l3.56-2.82s-.53-3.31-2.52-4.82a17,17,0,0,1-1.54-1.33c-1.22,1.52-2.4,3-3.56,4.55l3.7,4.73A2,2,0,0,0,84.15,253.3Z" transform="translate(-25.63 -201.49)"/><path class="cls-1" d="M87.86,251.82s-3.87,1.66-4.07,1.79l6.38,7.76Z" transform="translate(-25.63 -201.49)"/><path class="cls-1" d="M68.68,237.56l.17.12c-.06,0-.55-.06-.59.08a1.34,1.34,0,0,1,.18-.38Z" transform="translate(-25.63 -201.49)"/><path class="cls-1" d="M81.58,255.89h0l-2.85.9s-1.36-1.65-2.83-3.49c-.42-.54-.86-1.08-1.27-1.61-1-1.25-1.85-2.4-2.21-3a1,1,0,0,0-.09-.15.63.63,0,0,1-.08-.21.28.28,0,0,1,0-.13v-.08h0c0-.08,0-.16,0-.25s.06-.22.1-.34,0-.15.08-.23l.12-.34c.2-.53.43-1.07.59-1.42,0,0,0,0,0,0,.21-.32.42-.65.61-1,.11-.17.21-.35.3-.52l.29-.52c0-.08.08-.15.12-.22l1.17,1.22s0,0,0,0l.2.21h0l.06.06.21.23.22.24.29.31.13.14.38.42.61.68c.13.15.25.29.37.41l.11.14.11.12.16.18.1.12c.11.12.2.23.27.32l.06.06,0,0,0,.07.06.06,0,.06h0l0,0,.06.07.89,1.15,3.64,4.67.3.4,5.34,6.87.07.08.06.07,0,.06.07.08-8.6-3.44Z" transform="translate(-25.63 -201.49)"/><path class="cls-1" d="M68.81,286.53c.16-7.4.5-14.91-.66-22a40.33,40.33,0,0,0-2.21-8.28c-.17-.43-.34-.87-.53-1.29l-.86-4.49a14.06,14.06,0,0,1,1.7,1.8,18.53,18.53,0,0,1,2,3.14,26.47,26.47,0,0,1,1.12,2.48l2.18,28.21,0,.41a.56.56,0,0,0,0,.07Z" transform="translate(-25.63 -201.49)"/><path class="cls-1" d="M69.79,258.87s1.53,23.43,1.78,27.18l-2.18-28.21C69.53,258.17,69.66,258.51,69.79,258.87Z" transform="translate(-25.63 -201.49)"/><path class="cls-1" d="M71.6,286.46l0-.41C71.59,286.24,71.6,286.38,71.6,286.46Z" transform="translate(-25.63 -201.49)"/><path class="cls-1" d="M68.81,286.53h-5.2l1.8-31.62c.19.42.36.86.53,1.29a40.33,40.33,0,0,1,2.21,8.28C69.31,271.62,69,279.13,68.81,286.53Z" transform="translate(-25.63 -201.49)"/><path class="cls-1" d="M81.71,228.65h0l-.53,3.95-.2,1.47s-.71-.12-1.68-.25l-.45-.06-.42-.06-.44-.06-.46-.06h-.07c-.12-.4-.23-.81-.35-1.21s-.28-1-.44-1.56l-.21-.69,0,0,2.11-1.51A5.43,5.43,0,0,1,80,228c.39-.07,1-.15,1.63-.23C81.64,228,81.68,228.34,81.71,228.65Z" transform="translate(-25.63 -201.49)"/><polygon class="cls-1" points="56.53 31.16 55.56 31.1 56.09 27.16 56.09 27.15 56.53 31.16"/><path class="cls-1" d="M76.67,230.8c.16.52.3,1,.44,1.56l-3.58-.21,2.91-2.08,0,0Z" transform="translate(-25.63 -201.49)"/><path class="cls-1" d="M90.45,235.46c-1.09-.3-2.23-.63-2.72-.79,0-.3,0-.59,0-.89s0-.92.06-1.37l0-.5c0-.09,0-.19,0-.29l.06-.59c0-.17,0-.34,0-.51l.09-.62c0-.25.06-2.87.07-2.72s.23,1.9.25,2,0,.17,0,.26,0,.25,0,.37,0,.17,0,.25l.06.25a13.49,13.49,0,0,0,.58,1.87c.28.73.59,1.44.88,2.16l.21.55C90.32,235.1,90.39,235.28,90.45,235.46Z" transform="translate(-25.63 -201.49)"/><path class="cls-1" d="M88.12,226.74l.72.38c-.34,0-1.35.09-2.6.19-1.47.11-3.26.27-4.64.43-.67.08-1.24.16-1.63.23a5.43,5.43,0,0,0-1.42.59l1.29-.92Z" transform="translate(-25.63 -201.49)"/><path class="cls-1" d="M96.89,236.13l-2.52-.65-1.2-.3.74-2.58h0a11.63,11.63,0,0,1,.08-2.35c-1.5-1-3-1.92-4-2.5l4.2,2.18.29.67Z" transform="translate(-25.63 -201.49)"/><path class="cls-1" d="M86.09,233.35l1.66.43c0,.3,0,.59,0,.89l-.1,0-.12,0-.14,0-.26-.05-.15,0-.2,0-.43-.05-.25,0C86.07,234,86.08,233.69,86.09,233.35Z" transform="translate(-25.63 -201.49)"/><path class="cls-1" d="M83.71,203.27l0,.07-.07.09,0,.06-5.7,7.73-.07.08s-.14.22-.37.61c-.6,1-1.86,3.2-3.15,5.75-.8,1.6-1.61,3.36-2.27,5.06-.08.22-.16.42-.24.63-.36,1-.7,1.88-1,2.75-1.39,3.89-2.23,6.75-2.23,6.75l-.63.27-.1,0h0l.08-.31c.21-.79.81-3,1.57-5.46a.21.21,0,0,1,0-.06v0h0a0,0,0,0,1,0,0c.21-.7.44-1.42.68-2.12s.57-1.66.87-2.42c.38-1,.91-2.11,1.5-3.28s1.21-2.27,1.82-3.35l0-.06h0a0,0,0,0,1,0,0s0,0,0,0v0l.21-.37,0-.06,0-.07,0,0h0l0-.07c.58-1.05,1.14-2,1.58-2.7.19-.32.35-.6.49-.82l.43-.7Z" transform="translate(-25.63 -201.49)"/><path class="cls-1" d="M56.08,213.61c-.2.15-.41.31-.61.48v1.49l-.78,3-.16.62-4.84,1.56,0-.06,0-.05a41.78,41.78,0,0,1,5.09-6h0A4.19,4.19,0,0,1,56.08,213.61Z" transform="translate(-25.63 -201.49)"/><path class="cls-1" d="M61.87,220.82c-.09-.22-.55-1.36-1.1-2.66-.1.52-.21,1-.31,1.55h0a1,1,0,0,0-.05.16c0,.14-.11.29-.17.44s0,.11,0,.16,0,0,0,0c-.08.25-.18.49-.28.74,0,0,0,.06,0,.09h0c-.07.17-.15.36-.23.52a2.14,2.14,0,0,0-.1.22c0,.09-.09.17-.13.25l-.12.21a.86.86,0,0,1-.07.1.94.94,0,0,0-.1.1c-.07.06-.13,0-.17,0a1.17,1.17,0,0,0-.15-.25h0c-.06-.1-.14-.21-.23-.33s-.14-.18-.22-.28c.08-.75.16-1.53.23-2.32.16-1.64.32-3.33.48-5l-.27-.45-.37-.62A2.32,2.32,0,0,1,59,214s.42,1,.92,2.21c.34.58.63,1.14.89,1.68a12.17,12.17,0,0,1,.91,2.45C61.77,220.44,61.81,220.61,61.87,220.82Z" transform="translate(-25.63 -201.49)"/><path class="cls-1" d="M55.47,214.09v1.49l-.78,3-.16.62-4.84,1.56,0-.06,0-.05a41.78,41.78,0,0,1,5.09-6h0C55.06,214.44,55.27,214.26,55.47,214.09Z" transform="translate(-25.63 -201.49)"/><path class="cls-1" d="M58.75,214.13c-.41,1.45-.83,2.85-1.28,4.27-.2.61-.39,1.2-.6,1.81l-.19-.21-.11-.12-.2-.22-.43-.45,0-.69L55.63,215l-.16.6v-1.49c.2-.17.41-.33.61-.48h0a5,5,0,0,1,1.81-.91c.16.29.33.55.48.81Z" transform="translate(-25.63 -201.49)"/><path class="cls-1" d="M60.83,217.85c0,.1,0,.2-.06.3h0c-.1.52-.21,1-.31,1.55h0v0s0,.09-.05.14-.11.29-.17.44,0,.11,0,.16,0,0,0,0c-.08.25-.18.49-.28.74,0,0,0,.06,0,.09h0c-.07.17-.15.36-.23.52a2.14,2.14,0,0,0-.1.22c0,.09-.09.17-.13.25l-.12.21a.86.86,0,0,1-.07.1.94.94,0,0,0-.1.1c-.07.06-.13,0-.17,0a1.17,1.17,0,0,0-.15-.25h0c-.06-.1-.14-.21-.23-.33s-.14-.18-.22-.28c.08-.75.16-1.53.23-2.32.16-1.64.32-3.33.48-5,.33.55.65,1.09.92,1.59S60.57,217.31,60.83,217.85Z" transform="translate(-25.63 -201.49)"/><path class="cls-1" d="M60.45,219.73h0s0,0,0,0Z" transform="translate(-25.63 -201.49)"/><path class="cls-1" d="M62.77,226.52c0,.51,0,1,0,1.52l-2.26-3.82.06-1.87.1-3.14s0,0,0,0a.08.08,0,0,0,0,0,.19.19,0,0,1,0,.07l0,.07a2.16,2.16,0,0,1-.08.23.14.14,0,0,1,0,.06c.1-.52.21-1,.31-1.55.55,1.3,1,2.44,1.1,2.66v0c0,.13.07.27.12.43a1.54,1.54,0,0,0,0,.17c0,.1.06.2.09.31s.09.33.14.53l.06.2s0,0,0,0,.06.23.1.35c.08.32.18.65.28,1C62.74,224.75,62.77,225.65,62.77,226.52Z" transform="translate(-25.63 -201.49)"/><path class="cls-1" d="M61.87,220.82c-.09-.22-.55-1.36-1.1-2.66h0c0-.1,0-.2.06-.3a12.17,12.17,0,0,1,.91,2.45C61.77,220.44,61.81,220.61,61.87,220.82Z" transform="translate(-25.63 -201.49)"/><path class="cls-1" d="M65.17,232.13l-.2-.33L62.74,228h0c0-.5,0-1,0-1.52,0-.87,0-1.77-.05-2.65l.28.95a.19.19,0,0,0,0,.08c0,.2.11.39.16.58s.11.39.18.59c.18.61.35,1.21.53,1.79.08.25.15.5.22.73.14.48.28.93.4,1.34C64.86,231.11,65.12,232,65.17,232.13Z" transform="translate(-25.63 -201.49)"/><path class="cls-1" d="M78.55,228.56l-2.11,1.51-.06-.19C77.16,229.37,77.9,228.91,78.55,228.56Z" transform="translate(-25.63 -201.49)"/><path class="cls-1" d="M77.46,233.57l-.31,0-.37,0-.45-.05-.59-.06c-.39,0-.74-.07-1-.08h-.18a2.17,2.17,0,0,0-.48,0c-.52.09-2.1.43-3.39.7,0,0,0,0,0,0,.45-.34,3.23-2.47,5.72-4.1l.06.19,0,0,.21.69c.16.52.3,1,.44,1.56S77.34,233.17,77.46,233.57Z" transform="translate(-25.63 -201.49)"/><path class="cls-1" d="M86.26,228.22c0,.43,0,.85,0,1.28s0,.82,0,1.23,0,.73,0,1.09c0,.51,0,1,0,1.53,0,.34,0,.69,0,1l-.53,0-.42,0h0L84,234.22h-.08l-.56,0-.56,0h-.45l-.15-1.5s-.52-4.61-.56-4.91c1.38-.16,3.17-.32,4.64-.43C86.25,227.61,86.26,227.91,86.26,228.22Z" transform="translate(-25.63 -201.49)"/><path class="cls-1" d="M93.91,232.59h0l-.74,2.58-.27.95h0l-.07,0-.46-.12L92,235.9l-.37-.1-.2-.06-.64-.17-.23-.07-.15,0c-.06-.18-.13-.36-.2-.54l-.21-.55c-.29-.72-.6-1.43-.88-2.16a13.49,13.49,0,0,1-.58-1.87l-.06-.25c0-.08,0-.16,0-.25s0-.25,0-.37,0-.18,0-.26-.25-1.9-.25-2,0,2.47-.07,2.72l-.09.62c0,.17,0,.34,0,.51l-.06.59c0,.1,0,.2,0,.29l0,.5c0,.45,0,.92-.06,1.37l-1.66-.43c0-.51,0-1,0-1.53,0-.36,0-.73,0-1.09s0-.82,0-1.23,0-.85,0-1.28,0-.61,0-.91c1.25-.1,2.26-.18,2.6-.19h0l1.12.58.07,0c1,.58,2.46,1.49,4,2.5A11.63,11.63,0,0,0,93.91,232.59Z" transform="translate(-25.63 -201.49)"/><path class="cls-1" d="M86.09,233.35l1.66.43c0,.3,0,.59,0,.89l-.1,0-.12,0-.14,0-.26-.05-.15,0-.2,0-.43-.05-.25,0C86.07,234,86.08,233.69,86.09,233.35Z" transform="translate(-25.63 -201.49)"/><path class="cls-1" d="M90,227.7l-1.12-.58H89S89.35,227.33,90,227.7Z" transform="translate(-25.63 -201.49)"/><path class="cls-1" d="M101.61,240.06,94.5,236.5l-.13-1-.4-3.1-.06.21a11.63,11.63,0,0,1,.08-2.35l.53.35c1,.72,2.08,1.47,2.89,2.15C100.31,235.16,101.61,240.06,101.61,240.06Z" transform="translate(-25.63 -201.49)"/><path class="cls-1" d="M74.38,242.44a2.53,2.53,0,0,1-.13.22c-.09.18-.19.36-.29.54l-.3.52c-.2.34-.42.68-.63,1,.07-.17.14-.3.16-.35l-2,2.5a86,86,0,0,1-3.14-8.29,7.18,7.18,0,0,1,.19-.83c0-.14.53-.12.59-.08.49.37,1.09.82,1.74,1.35l.48.38.48.4.49.42c.33.29.66.58,1,.89s.75.72,1.12,1.09C74.23,242.28,74.3,242.36,74.38,242.44Z" transform="translate(-25.63 -201.49)"/><path class="cls-1" d="M79.18,247.71l-.29.19a27,27,0,0,0-4.4,3c-1-1.27-1.89-2.43-2.25-3l-.09-.15a1,1,0,0,1-.09-.21v-.13s0-.05,0-.08h0c0-.07,0-.16.05-.25s.06-.22.1-.34,0-.15.08-.24l.12-.34c.2-.54.44-1.08.6-1.44a0,0,0,0,1,0,0c.21-.33.43-.67.63-1l.3-.52c.1-.18.2-.36.29-.54a2.53,2.53,0,0,0,.13-.22c.41.43.81.84,1.18,1.24,0,0,0,0,0,0l.11.11.1.1h0l0,.06.22.24.08.08.15.16c.1.11.2.21.29.32l.13.13.39.43.62.69.37.42.12.13a.65.65,0,0,0,.11.12l.16.19.11.12c.1.13.2.23.27.32l.06.07h0s0,0,0,0a.15.15,0,0,0,0,.06l.06.07,0,.06h0l0,0Z" transform="translate(-25.63 -201.49)"/><path class="cls-1" d="M75.78,252.58a20.56,20.56,0,0,0,3.4-4.87,30.63,30.63,0,0,0-4.7,3.24C74.9,251.49,75.35,252,75.78,252.58Z" transform="translate(-25.63 -201.49)"/><polygon class="cls-1" points="53.55 46.22 53.55 46.22 53.55 46.22 53.55 46.22"/><path class="cls-1" d="M84.1,254l-4.92-6.3h0a20.56,20.56,0,0,1-3.4,4.87c1.5,1.87,2.88,3.54,2.88,3.54l2.89-.91h0C82.4,254.8,83.25,254.39,84.1,254Z" transform="translate(-25.63 -201.49)"/><path class="cls-1" d="M81.55,255.22l-2.08,2.14S82.4,254.8,81.55,255.22Z" transform="translate(-25.63 -201.49)"/><path class="cls-1" d="M40.4,221.49l-.28,0H40Z" transform="translate(-25.63 -201.49)"/><path class="cls-1" d="M44.46,221.85c-.07.26-.14.53-.22.79l0,.13a.09.09,0,0,0,0,0,.16.16,0,0,0,0,.09c-2.07-.35-3.76-.61-4.18-.69h-.11l-.27,0c.12-.25.23-.49.36-.72h.15l.28,0h0l.21,0,.7.05.33,0,1.07.09.25,0,.44,0,.43,0a.65.65,0,0,0,.19,0Z" transform="translate(-25.63 -201.49)"/><path class="cls-1" d="M40,222.22c.42.08,2.11.34,4.18.69-.26.87-.54,1.73-.82,2.58-.09.29-.19.58-.29.87s-.25.75-.38,1.13-.26.78-.38,1.18l-.36,1.18h0c-2.72.14-4.77.39-4.77.39l.66-2.21,1.3-4.45-.09.16a8.33,8.33,0,0,1,.36-1l.22-.52.27,0H40Z" transform="translate(-25.63 -201.49)"/><path class="cls-1" d="M44.46,221.85c-.07.26-.13.53-.21.79a.65.65,0,0,0,0,.13l0-.13C44.32,222.38,44.39,222.11,44.46,221.85Z" transform="translate(-25.63 -201.49)"/><path class="cls-1" d="M55.21,224.75c0,.32-.06.65-.11,1a.25.25,0,0,1,0,.12,5.58,5.58,0,0,1-.09.59l-1.67,2.87-.74,1.26a14.79,14.79,0,0,0-2.14-.47c.16-.45.3-.89.44-1.35.44-1.42.79-2.87,1.11-4.31,0-.11,0-.22.07-.33l.18-.83h0c.23.07.44.15.65.23a3.8,3.8,0,0,1,.59.23,7.44,7.44,0,0,1,1,.5C54.69,224.37,55,224.55,55.21,224.75Z" transform="translate(-25.63 -201.49)"/><path class="cls-1" d="M44.75,221.88h0Z" transform="translate(-25.63 -201.49)"/><path class="cls-1" d="M48.85,222.47l-.18,0,.48.09Z" transform="translate(-25.63 -201.49)"/><path class="cls-1" d="M50.1,222.71l-.11,0,.46.11Z" transform="translate(-25.63 -201.49)"/><path class="cls-1" d="M44.53,223c2.51.43,5.48,1,7.46,1.45-.32,1.44-.67,2.89-1.11,4.31-.14.46-.28.9-.44,1.35a41.13,41.13,0,0,0-6.72-.3c.06-.7.13-1.4.21-2.09h0C44.1,226.11,44.31,224.55,44.53,223Z" transform="translate(-25.63 -201.49)"/><path class="cls-1" d="M52.24,223.25h0l-.57-.17Z" transform="translate(-25.63 -201.49)"/><path class="cls-1" d="M44.68,221.87h0c0,.27-.07.53-.11.79,0,.1,0,.2,0,.3-.22,1.58-.43,3.14-.59,4.72h0c-.08.69-.15,1.39-.21,2.09-.62,0-1.21,0-1.78.07h0c.12-.4.24-.79.37-1.18s.25-.79.38-1.18.26-.75.38-1.13.2-.58.29-.87c.29-.85.56-1.72.82-2.58a.16.16,0,0,1,0-.09.09.09,0,0,1,0,0l0-.13c.08-.26.15-.53.22-.79Z" transform="translate(-25.63 -201.49)"/><path class="cls-1" d="M55.21,224.75c-.05.56-.12,1.12-.22,1.67l.09-.15-.63,5.06,5.3,1.63c-.51-1.74-.93-3.56-1.31-5.33A35.82,35.82,0,0,0,55.21,224.75Z" transform="translate(-25.63 -201.49)"/><path class="cls-1" d="M65.14,234.62l-.62-.19-.91-.28h0L59.75,233c-.11-.38-.22-.78-.33-1.17-.05-.23-.11-.46-.17-.69s-.13-.53-.2-.8-.19-.78-.27-1.17c0-.11-.06-.21-.08-.31-.09-.4-.17-.79-.26-1.18l.58.57c.85.87,1.69,1.76,2.47,2.59l0,0,.08.08.43.47.53.58h0l.31.35.5.53.13.15.13.14.27.29.25.26a2.66,2.66,0,0,0,.23.24l.09.09.09.09,0,0,.25.24.14.11Z" transform="translate(-25.63 -201.49)"/><path class="cls-1" d="M40,221.46h0c-.13.23-.24.47-.36.72l-.22.52-7.54,7.76,4.13-1.7-1.16,1.93s-7.82,1.88-8.77,2.52c-.07.05-.07,0,0-.06.82-1.13,11.11-11.85,11.11-11.85h1.08l.4,0,.22,0,1,0Z" transform="translate(-25.63 -201.49)"/><path class="cls-1" d="M41.06,248.11c-1.83,2.13-2.89,3.67-2.89,3.67s-2.21,6.72-.1,12.07a48.35,48.35,0,0,1,3.38-4.46A83.69,83.69,0,0,1,41.06,248.11Z" transform="translate(-25.63 -201.49)"/><path class="cls-1" d="M51,248.17l-2.66,2.56C47.08,252,46,253.06,46,253.16l.68-8.59.14-1.7,1.36-.88c.06.39.12.78.17,1.17s.14.88.21,1.31Z" transform="translate(-25.63 -201.49)"/><path class="cls-1" d="M48.37,250.73V254s-2.74.63-6.91,5.42l-.11-1h0l-.09-.89v-.15c0-.17,0-.34,0-.52l0-.51c0-.06,0-.11,0-.18v0c0-.34,0-.68,0-1s0-.46,0-.68v-.14a2.62,2.62,0,0,1,0-.28c0-.24,0-.48,0-.72s0-.71,0-1.06c0-.75,0-1.49,0-2.23,0-.17,0-.33,0-.5s0-.45,0-.66v-.66c.65-.77,1.4-1.61,2.24-2.48l.42-.44c.46-.47.93-.94,1.43-1.42l.62-.58c.58-.53,1.18-1.07,1.81-1.59.17-.15.35-.29.53-.43,0,.27.06.54.08.82l-1.36.88-.14,1.7L46,253.16C46,253.06,47.08,252,48.37,250.73Z" transform="translate(-25.63 -201.49)"/><path class="cls-1" d="M54.79,247a17.89,17.89,0,0,0-1.73,4.18l-2-3-2.46-3.7c-.07-.43-.14-.86-.21-1.31,1-.84,2.07-1.66,3.06-2.4.38.75.77,1.49,1.16,2.23l.58,1.1.59,1.09C54.09,245.8,54.43,246.42,54.79,247Z" transform="translate(-25.63 -201.49)"/><path class="cls-1" d="M56.41,244.48A24.5,24.5,0,0,0,54.79,247c-.36-.6-.7-1.22-1-1.84l-.59-1.09-.58-1.1c-.39-.74-.78-1.48-1.16-2.23l-.35-.64,1-.67c.15.17.28.33.41.5.41.46.8.93,1.19,1.4C54.6,242.4,55.5,243.45,56.41,244.48Z" transform="translate(-25.63 -201.49)"/><path class="cls-1" d="M52.11,239.45l-1,.67c-.14-.28-.3-.55-.44-.84l.7-.46.09-.06.07,0h0C51.71,239,51.9,239.21,52.11,239.45Z" transform="translate(-25.63 -201.49)"/><path class="cls-1" d="M53.71,241.35,52.53,240l-.42-.5,1.41-.92s0,.27.06.7S53.66,240.52,53.71,241.35Z" transform="translate(-25.63 -201.49)"/><path class="cls-1" d="M62,239.16a22.32,22.32,0,0,0-5.63,5.33c-.91-1-1.81-2.09-2.7-3.14-.05-.83-.09-1.6-.13-2.12s-.06-.7-.06-.7l-1.41.92-.62-.73h0c.45-.29.91-.57,1.38-.83l.61-.33.53-.27c.25-.12.49-.24.74-.34s.34-.16.51-.22c.39-.16.77-.3,1.14-.43l.4-.12.5-.15.48-.12a1.55,1.55,0,0,1,.23-.06l.49-.11c.38.34.76.68,1.13,1,.53.49,1,1,1.56,1.51l.19.2Q61.72,238.8,62,239.16Z" transform="translate(-25.63 -201.49)"/><path class="cls-1" d="M65.82,237.15l-.06,0a22.86,22.86,0,0,0-3.72,2q-.32-.36-.66-.69l-.19-.2c-.51-.52-1-1-1.56-1.51-.37-.35-.75-.69-1.13-1h0l.73-.12.37-.05.71-.07.34,0c.27,0,.53,0,.78,0h.11l.61,0,.3,0,.36,0h0l.28,0h.07l.24,0,.21,0,.49.09.17,0,.39.1.11,0,.09,0,.81,1.14Z" transform="translate(-25.63 -201.49)"/><path class="cls-1" d="M52.24,223.26l-.18.83c0,.11,0,.22-.07.33-2-.48-5-1-7.46-1.45,0-.1,0-.2,0-.3,0-.26.08-.52.11-.79h.07l1.1.13,1.07.14.77.12.52.08.46.08.18,0,.3.05.32.06.34.07.18,0,.11,0,.35.08h.1l.88.22a1.05,1.05,0,0,1,.24.06Z" transform="translate(-25.63 -201.49)"/><path class="cls-1" d="M40,221.47c-.13.23-.24.47-.36.72l-2-.17-11.51,11.2v-.06c.82-1.13,11.11-11.85,11.11-11.85h1.08l.4,0,.22,0,1,0Z" transform="translate(-25.63 -201.49)"/><path class="cls-1" d="M44.68,221.88c0,.27-.07.53-.11.79-.11,0-.21,0-.32,0h0c.08-.26.15-.53.22-.79A1.3,1.3,0,0,1,44.68,221.88Z" transform="translate(-25.63 -201.49)"/><path class="cls-1" d="M51.45,223l.22.06a1.05,1.05,0,0,0-.24-.06Z" transform="translate(-25.63 -201.49)"/><path class="cls-1" d="M65.14,234.61l-.62-.18-.9-.28h0l-1-1.14c-.58-.65-1.34-1.49-2.16-2.37h0c-.56-.61-1.15-1.23-1.72-1.81a22.31,22.31,0,0,0-2.76-2.56c-.29-.18-.56-.35-.84-.55s-.61-.41-1-.61A.37.37,0,0,0,54,225a11,11,0,0,0-2-.94l.18-.83.65.22c.21.07.4.15.59.23a7.44,7.44,0,0,1,1,.5c.23.16.49.34.75.54s.49.38.75.61.81.69,1.23,1.08l.5.47.33.31,1,1c.85.87,1.69,1.76,2.47,2.59l0,0,.07.08.43.47.54.58h0l.31.35.5.53c0,.06.09.1.13.15a.86.86,0,0,1,.13.14,3.83,3.83,0,0,0,.28.29,3.08,3.08,0,0,0,.24.26l.23.24.09.09.09.09,0,0,.26.23a1.59,1.59,0,0,0,.13.13Z" transform="translate(-25.63 -201.49)"/><path class="cls-1" d="M51.42,240.76c-1,.74-2,1.56-3.06,2.4,0-.39-.11-.78-.17-1.17s0-.55-.08-.82l.61-.49c.37-.29.75-.57,1.13-.85l.59-.42.19-.13c.14.29.3.56.44.84Z" transform="translate(-25.63 -201.49)"/><path class="cls-1" d="M48.11,241.17c0,.27.06.54.08.82l-1.36.88-.14,1.7A70.14,70.14,0,0,0,41,249.93a23.19,23.19,0,0,0-1.58,1.9c-1.93,4.1-1.38,12-1.38,12-2.11-5.34.09-12.06.09-12.06h0v0l0,0,0,0,.06-.07.07-.09a.38.38,0,0,1,.09-.13v0l.06-.09.18-.24a1.13,1.13,0,0,1,.1-.13c.11-.14.22-.3.35-.46l.09-.12.09-.11.24-.31c.41-.52.91-1.13,1.48-1.79s1.4-1.61,2.24-2.48l.42-.44c.46-.47.93-.94,1.43-1.42l.62-.58c.58-.53,1.18-1.07,1.81-1.59C47.75,241.45,47.93,241.31,48.11,241.17Z" transform="translate(-25.63 -201.49)"/><path class="cls-1" d="M65.7,237.09a12.45,12.45,0,0,0-6.07-.34,15.9,15.9,0,0,0-2.69.63,15.56,15.56,0,0,0-3.36,1.85c0-.44-.06-.7-.06-.7l-1.41.92-1,.67c-.14-.28-.3-.55-.44-.84l.7-.46.09-.06.07,0h0c.45-.28.91-.56,1.38-.83.2-.12.41-.22.62-.33l.51-.27c.26-.11.5-.24.75-.34a4.77,4.77,0,0,1,.52-.22c.38-.16.76-.3,1.13-.42a1.87,1.87,0,0,1,.4-.13l.5-.15.48-.12.23-.06a4.74,4.74,0,0,1,.49-.1h0c.24,0,.49-.09.73-.12a2.52,2.52,0,0,1,.37-.05,5.69,5.69,0,0,1,.71-.07l.34,0c.23,0,.45,0,.66,0h.23a6.08,6.08,0,0,1,.61,0h.3l.37,0h0l.28,0h.07l.24,0,.22,0,.43.09h0l.17,0,.39.1.11,0,.08,0h0Z" transform="translate(-25.63 -201.49)"/><path class="cls-1" d="M101.61,240.06,94.5,236.5l-.13-1L94,232.38l-.07.2a12.33,12.33,0,0,1,.08-2.34c-1.5-1-3-1.92-4-2.5l-.07,0-1.12-.59-1,.07-1.65.12c-1.47.13-3.26.28-4.64.44-.67.08-1.24.15-1.64.23a5.53,5.53,0,0,0-1.41.59l-2.11,1.51s0,0,0,0l.21.69c.16.52.3,1,.44,1.56s.23.81.35,1.21l-.31,0-.37,0-.44-.05-.6-.06-1-.09h-.17a3.12,3.12,0,0,0-.49,0l-.58.11-.34.07h-.07l-.42.09-1,.22-.94.2h0l-.07,0h0a5.51,5.51,0,0,0-2.1,2.47,76.69,76.69,0,0,1,8,2.43l-.59.28-.33.18-.41.24a4.28,4.28,0,0,0-.42.26l-.4.27c-.06,0-.11.08-.16.11l-.15.11-.48.35a79.2,79.2,0,0,1,6.3,7l.57.76h0c1,1.38,2.35,3.13,3.65,4.92l0,0,0,0c2.54,3.47,5.07,7,5.57,7.68a.05.05,0,0,1,0,.05l0-.06s0,0-.05-.07l-.07-.09-.16-.2c-.91-1.09-3.2-3.86-5.49-6.66C82,251.8,80.12,249.48,79,248h0a.64.64,0,0,0-.1-.13h0c-.42-.54-.73-.94-.86-1.14a31.52,31.52,0,0,0-3.77-4.09l.12-.22-.23-.23c-.37-.38-.74-.74-1.11-1.09s-.67-.6-1-.88c-.17-.16-.33-.29-.49-.43s-.33-.28-.49-.4L70.6,239c-.66-.53-1.25-1-1.75-1.34,0-.05-.55-.07-.59.07a7.18,7.18,0,0,0-.19.83c0,.14,0,.28-.07.43a4.6,4.6,0,0,0,0,.53l1.4,18.29a26.47,26.47,0,0,0-1.12-2.48c0-.14,0-.29,0-.43s0-.31,0-.46c0-.64-.07-1.33-.12-2.06,0-.35-.06-.72-.09-1.1h0c0-.28,0-.55-.07-.84s0-.56-.07-.84v0c0-.5-.09-1-.14-1.47,0-.21,0-.42-.06-.63-.32-3.1-.63-5.68-.63-5.68v-.08a.86.86,0,0,0,0-.15c0-.32-.09-.94-.21-1.63a9.51,9.51,0,0,0-.59-2.11l-.48-.67-.06-.08-.81-1.15h0l-1.26-1.79.9.28.62.18,0,0L66,235.7l-.86-3.54h0v0c0-.17-.31-1-.66-2.2-.12-.41-.26-.86-.4-1.34-.07-.23-.14-.48-.22-.73-.18-.58-.35-1.18-.53-1.79-.07-.2-.12-.39-.18-.59s-.11-.38-.16-.58a.19.19,0,0,1,0-.08l-.28-.95c-.1-.36-.2-.69-.28-1,0-.12-.07-.23-.1-.35s0,0,0,0l-.06-.2c-.05-.2-.1-.37-.14-.53s-.07-.21-.09-.31a1.54,1.54,0,0,1,0-.17c-.05-.16-.09-.3-.12-.43v0c-.06-.21-.1-.38-.13-.52a12.17,12.17,0,0,0-.91-2.45c-.26-.54-.55-1.1-.89-1.68C59.44,214.94,59,214,59,214a2.32,2.32,0,0,0-.64-.45c-.15-.26-.32-.52-.48-.81a5,5,0,0,0-1.81.91h0a4.19,4.19,0,0,0-1.23,1h0a41.78,41.78,0,0,0-5.09,6c.15-.26.65-1.06,2.24-3.64a14.58,14.58,0,0,1,5.82-5.32,24.56,24.56,0,0,1,4.07,6.47c1.55,3.58,3.6,13.08,4.12,15.17l1.17,3.16a.34.34,0,0,0,.11.07l.48-3.41a.51.51,0,0,1,.1,0l.63-.27-.29,2.23a4.52,4.52,0,0,1,.65-.67c.06-.06,2.17-2,4.65-3.88s5.3-3.82,6.79-3.87c3-.07,9.1-.85,9.57,0s8.13,4.16,9.93,7.75A14.21,14.21,0,0,1,101.61,240.06Z" transform="translate(-25.63 -201.49)"/><path class="cls-1" d="M88.13,228.17" transform="translate(-25.63 -201.49)"/><path class="cls-2" d="M207.08,237.8v3H194.61v-16.1h12.17v3h-8.47v3.49h7.48v2.9h-7.48v3.73Z" transform="translate(-25.63 -201.49)"/><path class="cls-2" d="M220.88,232.48h3.4V239a9.85,9.85,0,0,1-3,1.52,11.82,11.82,0,0,1-3.47.52,9.36,9.36,0,0,1-4.51-1.07,8,8,0,0,1-3.14-3,8.71,8.71,0,0,1,0-8.58,7.9,7.9,0,0,1,3.17-3,9.61,9.61,0,0,1,4.55-1.07,9.88,9.88,0,0,1,3.84.72,7.49,7.49,0,0,1,2.9,2.07l-2.39,2.2a5.54,5.54,0,0,0-4.17-1.81,5.64,5.64,0,0,0-2.73.64,4.68,4.68,0,0,0-1.87,1.82,5.77,5.77,0,0,0,0,5.36,4.72,4.72,0,0,0,1.86,1.82,5.45,5.45,0,0,0,2.7.66,6.06,6.06,0,0,0,2.9-.69Z" transform="translate(-25.63 -201.49)"/><path class="cls-2" d="M240.77,237.75v3H226.7v-2.42l8.83-10.65h-8.65v-3h13.55v2.41l-8.81,10.65Z" transform="translate(-25.63 -201.49)"/><path class="cls-2" d="M246.28,240a8,8,0,0,1-3.15-3,8.21,8.21,0,0,1,3.15-11.51,10,10,0,0,1,9,0,8.06,8.06,0,0,1,4.3,7.25,8.06,8.06,0,0,1-4.3,7.24,10,10,0,0,1-9,0Zm7.1-2.75a4.7,4.7,0,0,0,1.8-1.82,5.73,5.73,0,0,0,0-5.34,4.79,4.79,0,0,0-1.8-1.83,5.45,5.45,0,0,0-5.16,0,4.73,4.73,0,0,0-1.8,1.83,5.73,5.73,0,0,0,0,5.34,4.63,4.63,0,0,0,1.8,1.82,5.37,5.37,0,0,0,5.16,0Z" transform="translate(-25.63 -201.49)"/><path class="cls-2" d="M265.52,227.72h-5.15v-3h14v3h-5.15v13.07h-3.73Z" transform="translate(-25.63 -201.49)"/><path class="cls-2" d="M283.83,235.08v5.71H280.1V235l-6.23-10.35h3.95l4.31,7.15,4.3-7.15h3.65Z" transform="translate(-25.63 -201.49)"/><path class="cls-2" d="M294.21,240a8,8,0,0,1-3.13-3,8.71,8.71,0,0,1,0-8.58,8,8,0,0,1,3.13-3,10,10,0,0,1,8.26-.33,7.56,7.56,0,0,1,2.84,2.11l-2.39,2.21a5.13,5.13,0,0,0-4.05-1.88,5.33,5.33,0,0,0-2.67.65,4.73,4.73,0,0,0-1.83,1.83,5.44,5.44,0,0,0-.65,2.67,5.5,5.5,0,0,0,.65,2.67,4.64,4.64,0,0,0,1.83,1.82,5.34,5.34,0,0,0,2.67.66,5.13,5.13,0,0,0,4.05-1.91l2.39,2.21a7.56,7.56,0,0,1-2.85,2.14,9.5,9.5,0,0,1-3.8.73A9.18,9.18,0,0,1,294.21,240Z" transform="translate(-25.63 -201.49)"/><path class="cls-2" d="M320.86,237.75v3H306.78v-2.42l8.83-10.65H307v-3h13.55v2.41l-8.81,10.65Z" transform="translate(-25.63 -201.49)"/><path class="cls-2" d="M338,224.69v16.1H335l-8-9.78v9.78h-3.68v-16.1h3.08l8,9.77v-9.77Z" transform="translate(-25.63 -201.49)"/><path class="cls-2" d="M354.3,237.8v3H341.83v-16.1H354v3h-8.46v3.49H353v2.9h-7.47v3.73Z" transform="translate(-25.63 -201.49)"/><path class="cls-2" d="M367.05,240a8,8,0,0,1-3.15-3,8.21,8.21,0,0,1,3.15-11.51,10,10,0,0,1,9,0,8.21,8.21,0,0,1,3.15,3A8.21,8.21,0,0,1,376.08,240a10,10,0,0,1-9,0Zm7.1-2.75a4.63,4.63,0,0,0,1.8-1.82,5.73,5.73,0,0,0,0-5.34,4.73,4.73,0,0,0-1.8-1.83,5.1,5.1,0,0,0-2.58-.65,5,5,0,0,0-2.57.65,4.75,4.75,0,0,0-1.81,1.83,5.73,5.73,0,0,0,0,5.34,4.66,4.66,0,0,0,1.81,1.82,5,5,0,0,0,2.57.66A5.11,5.11,0,0,0,374.15,237.23Z" transform="translate(-25.63 -201.49)"/><path class="cls-2" d="M394.07,232.48h3.4V239a9.85,9.85,0,0,1-3,1.52,11.82,11.82,0,0,1-3.47.52,9.36,9.36,0,0,1-4.51-1.07,8,8,0,0,1-3.14-3,8.64,8.64,0,0,1,0-8.58,7.9,7.9,0,0,1,3.17-3,9.58,9.58,0,0,1,4.55-1.07,9.88,9.88,0,0,1,3.84.72,7.49,7.49,0,0,1,2.9,2.07l-2.39,2.2a5.54,5.54,0,0,0-4.17-1.81,5.64,5.64,0,0,0-2.73.64,4.68,4.68,0,0,0-1.87,1.82,5.77,5.77,0,0,0,0,5.36,4.69,4.69,0,0,0,1.85,1.82,5.49,5.49,0,0,0,2.71.66,6.06,6.06,0,0,0,2.9-.69Z" transform="translate(-25.63 -201.49)"/><path class="cls-2" d="M411.18,240.79l-3.11-4.49h-3.42v4.49h-3.73v-16.1h7a9,9,0,0,1,3.71.71,5.34,5.34,0,0,1,3.28,5.13,5.24,5.24,0,0,1-3.31,5.08l3.61,5.18Zm-.95-12.34a3.92,3.92,0,0,0-2.55-.73h-3v5.62h3a3.86,3.86,0,0,0,2.55-.74,2.89,2.89,0,0,0,0-4.15Z" transform="translate(-25.63 -201.49)"/><path class="cls-2" d="M421.1,240a8,8,0,0,1-3.15-3,8.21,8.21,0,0,1,3.15-11.51,10,10,0,0,1,9,0,8.21,8.21,0,0,1,3.15,3A8.21,8.21,0,0,1,430.13,240a10,10,0,0,1-9,0Zm7.1-2.75a4.63,4.63,0,0,0,1.8-1.82,5.73,5.73,0,0,0,0-5.34,4.73,4.73,0,0,0-1.8-1.83,5.45,5.45,0,0,0-5.16,0,4.79,4.79,0,0,0-1.8,1.83,5.73,5.73,0,0,0,0,5.34,4.7,4.7,0,0,0,1.8,1.82,5.37,5.37,0,0,0,5.16,0Z" transform="translate(-25.63 -201.49)"/><path class="cls-2" d="M437.24,224.69h7.31a10.21,10.21,0,0,1,4.63,1,7.39,7.39,0,0,1,3.13,2.82,8.55,8.55,0,0,1,0,8.46,7.46,7.46,0,0,1-3.13,2.82,10.34,10.34,0,0,1-4.63,1h-7.31Zm7.13,13a5.4,5.4,0,0,0,3.85-1.35,5.33,5.33,0,0,0,0-7.29,5.44,5.44,0,0,0-3.85-1.34H441v10Z" transform="translate(-25.63 -201.49)"/><path class="cls-2" d="M463.27,235.08v5.71h-3.72V235l-6.24-10.35h4l4.3,7.15,4.3-7.15h3.66Z" transform="translate(-25.63 -201.49)"/><path class="cls-2" d="M264.25,252.33a4.39,4.39,0,0,1,0,6.45A5.82,5.82,0,0,1,260.4,260h-3.11v3.81h-1.8v-12.6h4.91A5.82,5.82,0,0,1,264.25,252.33ZM263,257.65a2.89,2.89,0,0,0,0-4.19,4,4,0,0,0-2.61-.73h-3.06v5.65h3.06A4,4,0,0,0,263,257.65Z" transform="translate(-25.63 -201.49)"/><path class="cls-2" d="M268.3,251.16h1.8v12.6h-1.8Z" transform="translate(-25.63 -201.49)"/><path class="cls-2" d="M276.13,263.07a6.2,6.2,0,0,1-2.4-2.31,6.67,6.67,0,0,1,0-6.59,6.13,6.13,0,0,1,2.4-2.31,7.42,7.42,0,0,1,6.86,0,6,6,0,0,1,2.39,2.3,6.71,6.71,0,0,1,0,6.61,6.15,6.15,0,0,1-2.39,2.3,7.42,7.42,0,0,1-6.86,0Zm5.93-1.39a4.64,4.64,0,0,0,1.75-1.74,5.11,5.11,0,0,0,0-4.95,4.64,4.64,0,0,0-1.75-1.74,4.93,4.93,0,0,0-2.49-.63,5.06,5.06,0,0,0-2.51.63,4.62,4.62,0,0,0-1.77,1.74,5.18,5.18,0,0,0,0,4.95,4.62,4.62,0,0,0,1.77,1.74,5.06,5.06,0,0,0,2.51.63A4.93,4.93,0,0,0,282.06,261.68Z" transform="translate(-25.63 -201.49)"/><path class="cls-2" d="M291.32,252.73H287v-1.57h10.43v1.57h-4.32v11h-1.79Z" transform="translate(-25.63 -201.49)"/><path class="cls-2" d="M307.81,263.76l-2.72-3.87c-.33,0-.6,0-.79,0h-3.11v3.83h-1.8v-12.6h4.91a5.82,5.82,0,0,1,3.85,1.17,4,4,0,0,1,1.41,3.23,4.2,4.2,0,0,1-.72,2.48,4.1,4.1,0,0,1-2,1.49l3,4.23Zm-.95-6.1a2.9,2.9,0,0,0,0-4.2,4,4,0,0,0-2.61-.73h-3.06v5.67h3.06A4,4,0,0,0,306.86,257.66Z" transform="translate(-25.63 -201.49)"/><path class="cls-2" d="M319.57,263.07a6.3,6.3,0,0,1-2.41-2.31,6.67,6.67,0,0,1,0-6.59,6.22,6.22,0,0,1,2.41-2.31,7.4,7.4,0,0,1,6.85,0,6.11,6.11,0,0,1,2.4,2.3,6.78,6.78,0,0,1,0,6.61,6.25,6.25,0,0,1-2.4,2.3,7.4,7.4,0,0,1-6.85,0Zm5.93-1.39a4.61,4.61,0,0,0,1.74-1.74,5.11,5.11,0,0,0,0-4.95,4.61,4.61,0,0,0-1.74-1.74,5,5,0,0,0-2.5-.63,5.06,5.06,0,0,0-2.51.63,4.53,4.53,0,0,0-1.76,1.74,5.11,5.11,0,0,0,0,4.95,4.53,4.53,0,0,0,1.76,1.74,5.06,5.06,0,0,0,2.51.63A5,5,0,0,0,325.5,261.68Z" transform="translate(-25.63 -201.49)"/><path class="cls-2" d="M341.17,257.39h1.72v4.92a6.69,6.69,0,0,1-2.17,1.18,8.09,8.09,0,0,1-2.6.42,7,7,0,0,1-3.43-.84,6.2,6.2,0,0,1-3.28-5.61,6.42,6.42,0,0,1,.87-3.31,6.16,6.16,0,0,1,2.42-2.3,7.19,7.19,0,0,1,3.46-.83,7.36,7.36,0,0,1,2.75.49A5.62,5.62,0,0,1,343,253l-1.11,1.12a5.1,5.1,0,0,0-3.66-1.46,5.35,5.35,0,0,0-2.58.62,4.58,4.58,0,0,0-1.79,1.73,5.08,5.08,0,0,0,0,5,4.61,4.61,0,0,0,1.79,1.74,5.22,5.22,0,0,0,2.56.63,5.36,5.36,0,0,0,3-.81Z" transform="translate(-25.63 -201.49)"/><path class="cls-2" d="M346.33,251.16h1.8v12.6h-1.8Z" transform="translate(-25.63 -201.49)"/><path class="cls-2" d="M354.16,263.07a6.2,6.2,0,0,1-2.4-2.31,6.67,6.67,0,0,1,0-6.59,6.13,6.13,0,0,1,2.4-2.31,7.42,7.42,0,0,1,6.86,0,6,6,0,0,1,2.39,2.3,6.71,6.71,0,0,1,0,6.61,6.15,6.15,0,0,1-2.39,2.3,7.42,7.42,0,0,1-6.86,0Zm5.93-1.39a4.64,4.64,0,0,0,1.75-1.74,5.11,5.11,0,0,0,0-4.95,4.64,4.64,0,0,0-1.75-1.74,5,5,0,0,0-2.49-.63,5.06,5.06,0,0,0-2.51.63,4.62,4.62,0,0,0-1.77,1.74,5.18,5.18,0,0,0,0,4.95,4.62,4.62,0,0,0,1.77,1.74,5.06,5.06,0,0,0,2.51.63A5,5,0,0,0,360.09,261.68Z" transform="translate(-25.63 -201.49)"/><path class="cls-2" d="M365.3,258.31,371,254l.79,1-5.68,4.32Zm1.88-7.15H369v11h6.82v1.56h-8.62Z" transform="translate(-25.63 -201.49)"/><path class="cls-2" d="M377.87,251.16h5.31a7.63,7.63,0,0,1,3.54.8,5.69,5.69,0,0,1,2.41,2.22,6.77,6.77,0,0,1,0,6.57,5.82,5.82,0,0,1-2.41,2.22,7.63,7.63,0,0,1-3.54.79h-5.31Zm5.2,11a5.77,5.77,0,0,0,2.69-.6,4.29,4.29,0,0,0,1.79-1.66,5.18,5.18,0,0,0,0-4.95,4.38,4.38,0,0,0-1.79-1.67,5.89,5.89,0,0,0-2.69-.59h-3.4v9.47Z" transform="translate(-25.63 -201.49)"/><path class="cls-2" d="M400.58,260.61h-6.69l-1.39,3.15h-1.85l5.7-12.6h1.78l5.73,12.6H402Zm-.63-1.44L397.24,253l-2.72,6.17Z" transform="translate(-25.63 -201.49)"/><line class="cls-3" x1="121.26" y1="15.54" x2="121.26" y2="70.91"/></svg>