<svg xmlns="http://www.w3.org/2000/svg" viewBox="0 0 86.54 95.7"><defs><style>.cls-1{fill:none;stroke:#232323;stroke-miterlimit:10;stroke-width:0.75px;}</style></defs><title>Zasób 1</title><g id="Warstwa_2" data-name="Warstwa 2"><g id="Warstwa_1-2" data-name="Warstwa 1"><path class="cls-1" d="M37.74,13.83c-.18,1.86-.37,3.77-.54,5.63-.08.89-.17,1.77-.26,2.63l-.4-.48c-.06-.07-.12-.15-.19-.22l-.54-.63-.3-.33-.14-.15-.06-.07c.23-.68.46-1.36.67-2,.51-1.61,1-3.2,1.45-4.85Z"/><path class="cls-1" d="M33.92,14.29l.29,4-1.36.08-2.77.19a23,23,0,0,1,3-4.67h0a4.58,4.58,0,0,1,1.39-1.16q-.36.25-.69.54V15Z"/><path class="cls-1" d="M39.73,17.89c-.11.59-.24,1.17-.35,1.76v-.07a2,2,0,0,0,.08-.26v-.16h0l-.11,3.55c-.24-.35-.51-.72-.79-1.11h0l-1.47-2c.17-1.86.36-3.77.54-5.63l-.31-.51-.41-.69a2.82,2.82,0,0,1,.73.51l1,2.49c.3.72.64,1.51.94,2.25Z"/><path class="cls-1" d="M15.12,24.2l.11-.17-1.49,5-2.07.85L7,31.8,15.53,23A8.24,8.24,0,0,0,15.12,24.2Z"/><path class="cls-1" d="M42.37,34.88a3.07,3.07,0,0,1-.61-.18c-.77-.26-2.09-.78-3.59-1.38-1.82-.73-3.88-1.57-5.42-2.21L31.3,30.5l-.83-.34-1.94-.29-7.86-1.18h0l-1.41-.19-3-.44-2.54,1,1.47-5-.11.17a11.2,11.2,0,0,1,.41-1.15L16,22.5h.12c.49.09,2.4.38,4.73.78l.42.07c2.84.48,6.2,1.1,8.44,1.63h0a11.53,11.53,0,0,1,2.3.7.61.61,0,0,1,.14.07,11.43,11.43,0,0,1,1,.83h0c1.07.91,2.62,2.31,4.17,3.72h0L39.22,32h0A42.43,42.43,0,0,1,42.37,34.88Z"/><path class="cls-1" d="M31.78,48.5c0,.56-1.68,2.09-3.08,3.39L25.91,47.7l-.24-1.48c1.17-1,2.35-1.89,3.46-2.72.43.84.88,1.68,1.32,2.52l.65,1.24A11.45,11.45,0,0,1,31.78,48.5Z"/><path class="cls-1" d="M48.22,60a21.23,21.23,0,0,0-2.28-3.5l.91-11.59v-1C46.87,44.5,48.06,54.9,48.22,60Z"/><path class="cls-1" d="M48.08,70.33c0,.78-.1,1.55-.17,2.33-.88,7.54-1.74,15.09-2,22.63H43L45.59,61A46.68,46.68,0,0,1,48.08,70.33Z"/><path class="cls-1" d="M48.08,70.33c1.33,8.08.94,16.58.76,25h-3c.29-7.54,1.16-15.09,2-22.63A22.13,22.13,0,0,0,48.08,70.33Z"/><path class="cls-1" d="M54.92,8.93c-1.25,1.33-2.42,2.55-2.42,2.55l-.23,7a9.29,9.29,0,0,0,.93,1.06c.83-1.92,1.61-3.6,2-4.34.32-.57,1.18-1.81,2.29-3.33C56.69,10.91,55.67,10,54.92,8.93Z"/><path class="cls-1" d="M53.2,19.57a9.38,9.38,0,0,1-.93-1.07v.13l-2.45-4a31,31,0,0,0-2.45,7.07c.94,1.5,2,2.9,3,4.29C51.17,24.24,52.24,21.75,53.2,19.57Z"/><path class="cls-1" d="M50.44,26l-.29.71h0l-.24.59-.38.91h0a.11.11,0,0,0,0,.08l-1.71,6.47-.11,0h0s-.66-9.37-.3-12.64a1.29,1.29,0,0,1,.08-.54c.22.36.45.71.68,1.06v.05c.21.32.44.64.67,1l.08.12c.22.3.45.6.67.91l.75,1Z"/><path class="cls-1" d="M59.49,20l-2.8-2.71h0a21.44,21.44,0,0,0-2.53.07c-.82,1.8-1.88,4.26-2.78,6.39h5.74C58.44,21.66,59.49,20,59.49,20Z"/><path class="cls-1" d="M54.63,27.92c-.39.68-.76,1.34-1.09,1.94a11.31,11.31,0,0,1-5.06,4.64c-.24.11-.47.21-.71.3l1.71-6.47a.11.11,0,0,1,0-.08h0l.37-.91c.07-.17.17-.37.24-.59h0a8.23,8.23,0,0,1,.86.19,3.45,3.45,0,0,1,.46.12l.45.13A26.23,26.23,0,0,0,54.63,27.92Z"/><path class="cls-1" d="M51.37,23.77c-.49,1.12-.92,2.14-1.24,2.93,1.57.25,3,.92,4.48,1.22.8-1.38,1.7-2.85,2.5-4.15Z"/><path class="cls-1" d="M55.22,15.23a19.74,19.74,0,0,0-1,2.15,21.21,21.21,0,0,1,2.52-.07l4.49-.87L63,13.73a36,36,0,0,1-4.51-3A46.86,46.86,0,0,0,55.22,15.23Z"/><path class="cls-1" d="M64.24,11.36A17.4,17.4,0,0,1,58.91,10l-.51.71a36,36,0,0,0,4.51,3l1.26-2Z"/><path class="cls-1" d="M65.63,47.5c-1.26,1.56-2.48,3.13-3.68,4.69l-.35.45-1-1.31-.05-.08h0l-.06-.07-.06-.07L60.37,51h0L60.3,51,60,50.6l-.12-.15-.18-.2-.13-.14a1,1,0,0,0-.13-.15L59,49.48l-.71-.78-.44-.48-.14-.16-.33-.36a1.29,1.29,0,0,1-.16-.18,2.31,2.31,0,0,1-.34-.36l-.07-.07L56.7,47l-.12-.13-1.34-1.4L55,45.16c-.41-.41-.84-.82-1.26-1.22l.56-.44c.17-.14.35-.27.54-.4L55,43l.18-.12.46-.31c.15-.1.3-.2.46-.29a3.59,3.59,0,0,1,.47-.27l.38-.21.66-.32a4.84,4.84,0,0,1,1,.48l1.59,1.13L59,47.2l3.77-2.82A40.32,40.32,0,0,0,65.63,47.5Z"/><path class="cls-1" d="M66.2,57.67l4-3.19s-.61-3.75-2.87-5.45a20.59,20.59,0,0,1-1.7-1.53q-2.09,2.58-4,5.14L65.83,58A3.92,3.92,0,0,0,66.2,57.67Z"/><path class="cls-1" d="M70.37,56s-4.38,1.87-4.6,2l6.76,8.67Z"/><path class="cls-1" d="M48.69,39.85l.19.14c-.06-.05-.62-.07-.67.09a1.4,1.4,0,0,1,.2-.43Z"/><path class="cls-1" d="M63.24,59.85h0l-3.26,1s-1.57-1.89-3.26-4L55.24,55c-1.12-1.44-2.12-2.76-2.54-3.42l-.1-.18a.65.65,0,0,1-.09-.23.22.22,0,0,1,0-.16v-.08h0a.6.6,0,0,1,.05-.28,1.82,1.82,0,0,0,.11-.39l.09-.27.14-.39c.23-.6.5-1.23.68-1.62h0c.24-.37.48-.76.71-1.15l.35-.58.33-.61.14-.25,1.34,1.4h0a1.79,1.79,0,0,1,.23.25h0l.07.07.24.27.26.27.33.36.14.16.44.48.71.78.42.48.13.15.13.14.18.2.12.15.31.36a.13.13,0,0,1,.06.07h0l.06.08.06.07.06.07h0l.06.08,1,1.31L65.65,58l.35.45,6.14,7.88.08.09.06.09.06.06.08.1-9.91-4Z"/><path class="cls-1" d="M48.84,95.29c.18-8.38.57-16.88-.76-25a46.68,46.68,0,0,0-2.49-9.38c-.19-.49-.39-1-.6-1.46l-1-5.08a17.39,17.39,0,0,1,1.93,2,20.71,20.71,0,0,1,2.28,3.56,30.73,30.73,0,0,1,1.27,2.8l2.47,31.94v.47a.09.09,0,0,0,0,.07Z"/><path class="cls-1" d="M49.94,64s1.73,26.53,2,30.77L49.47,62.81A11,11,0,0,1,49.94,64Z"/><path class="cls-1" d="M48.84,95.29H43l2-35.8c.21.49.41,1,.6,1.46A46,46,0,0,1,48,70.33C49.37,78.41,49,86.91,48.84,95.29Z"/><path class="cls-1" d="M63.44,29.76h0l-.6,4.46-.24,1.67s-.8-.13-1.9-.28l-.51-.07-.47-.07-.5-.06-.53-.07h-.07c-.14-.46-.27-.92-.39-1.37s-.33-1.18-.5-1.77c-.08-.26-.16-.52-.25-.78h0l2.38-1.7a5.91,5.91,0,0,1,1.6-.67c.45-.09,1.1-.18,1.85-.26C63.37,29.07,63.37,29.41,63.44,29.76Z"/><polygon class="cls-1" points="63.95 34.3 62.84 34.23 63.45 29.77 63.45 29.76 63.95 34.3"/><path class="cls-1" d="M57.74,32.2c.17.59.34,1.18.5,1.77l-4.06-.24,3.3-2.36h0Z"/><path class="cls-1" d="M73.37,37.5c-1.24-.35-2.52-.71-3.09-.9v-1q0-.78.06-1.56v-.89a2.9,2.9,0,0,1,.06-.66c.06-.22,0-.39.06-.59l.09-.7c0-.28.07-3.24.09-3.07s.26,2.14.28,2.29a1.48,1.48,0,0,1,0,.3,1.12,1.12,0,0,0,.06.42l.06.28.06.28a19.11,19.11,0,0,0,.66,2.11c.32.83.67,1.64,1,2.45.08.21.16.42.23.62S73.26,37.27,73.37,37.5Z"/><path class="cls-1" d="M70.7,27.6l.81.43-3,.22c-1.66.13-3.69.3-5.26.49-.75.08-1.4.17-1.85.26a5.91,5.91,0,0,0-1.6.67l1.46-1Z"/><path class="cls-1" d="M80.62,38.24l-2.85-.74-1.36-.35.83-2.92h0a14.77,14.77,0,0,1,.09-2.66c-1.7-1.13-3.39-2.16-4.48-2.82l4.75,2.47.33.76Z"/><path class="cls-1" d="M68.37,35.09l1.89.49v1h-.41l-.29,0h-.39l-.49-.06h-.29C68.37,35.87,68.37,35.5,68.37,35.09Z"/><path class="cls-1" d="M65.7,1v.08l-.08.1-.06.07L59.1,10l-.07.09-.42.7c-.68,1.15-2.11,3.61-3.56,6.51-.91,1.81-1.83,3.8-2.57,5.73-.09.24-.19.47-.27.7-.42,1.09-.8,2.14-1.15,3.13-1.58,4.39-2.53,7.63-2.53,7.63-.24.11-.47.21-.71.3l-.11,0h0l.09-.36c.24-.9.91-3.41,1.77-6.17a.11.11,0,0,1,0-.08h0c.25-.8.51-1.61.77-2.41s.65-1.88,1-2.73A39.2,39.2,0,0,1,53,19.4c.7-1.33,1.38-2.57,2.06-3.79a.09.09,0,0,0,0-.07h0l.24-.43V15h0v-.08c.65-1.19,1.28-2.24,1.78-3.06.22-.35.4-.67.56-.93l.49-.78Z"/><path class="cls-1" d="M34.42,12.74q-.36.26-.69.54V15l-.88,3.4-.18.7-5.48,1.77v-.13A46.84,46.84,0,0,1,33,13.9h0A4.64,4.64,0,0,1,34.42,12.74Z"/><path class="cls-1" d="M41,20.9c-.09-.24-.63-1.54-1.24-3-.11.59-.24,1.17-.35,1.76h0a.3.3,0,0,1-.06.18,3.14,3.14,0,0,0-.19.5l-.06.19h0c-.09.28-.2.55-.32.83v.1h0c-.08.2-.17.41-.26.59a1.53,1.53,0,0,0-.11.25,2.7,2.7,0,0,1-.15.29c-.06.09-.09.16-.14.23l-.07.11-.12.12a.11.11,0,0,1-.2-.05,1.17,1.17,0,0,0-.17-.28h0c-.08-.13-.17-.25-.26-.37L37,22c.09-.86.17-1.74.26-2.63.17-1.86.36-3.77.54-5.63l-.31-.51-.41-.69a2.82,2.82,0,0,1,.73.51l1,2.49c.38.67.72,1.3,1,1.91a15,15,0,0,1,1,2.77A2.8,2.8,0,0,0,41,20.9Z"/><path class="cls-1" d="M33.73,13.28V15l-.88,3.4-.18.7-5.48,1.77v-.13A46.84,46.84,0,0,1,33,13.9h0A6.64,6.64,0,0,0,33.73,13.28Z"/><path class="cls-1" d="M37.44,13.32C37,15,36.49,16.56,36,18.17c-.21.68-.44,1.36-.67,2l-.22-.24L35,19.8l-.24-.25L34.26,19v-.78l-.29-4-.2.69v-1.7l.7-.54h0a5.38,5.38,0,0,1,2-1l.55.91Z"/><path class="cls-1" d="M39.81,17.5a.54.54,0,0,1-.08.34h0c-.11.59-.24,1.17-.35,1.76h0l-.06.16a1.55,1.55,0,0,1-.19.5l-.06.19h0c-.09.28-.2.55-.32.83v.1h0c-.08.2-.17.41-.26.59a1.53,1.53,0,0,0-.11.25,2.7,2.7,0,0,1-.15.29c-.06.09-.09.16-.14.23l-.07.11L37.9,23a.11.11,0,0,1-.2,0,1.17,1.17,0,0,0-.17-.28h0c-.08-.13-.17-.25-.26-.37L37,22c.09-.86.17-1.74.26-2.63.17-1.86.36-3.77.54-5.63.38.64.73,1.24,1,1.8S39.51,16.93,39.81,17.5Z"/><path class="cls-1" d="M39.37,19.67Z"/><path class="cls-1" d="M42,27.36v1.71l-2.62-4.32.07-2.12.11-3.55h0v.16a2,2,0,0,1-.08.26v.07c.11-.59.23-1.17.34-1.76.63,1.47,1.16,2.77,1.24,3h0a2,2,0,0,0,.13.49l.06.2a1.18,1.18,0,0,0,.1.34l.16.61a.81.81,0,0,1,.07.22h0a1.43,1.43,0,0,0,.11.39L42,24.2C42,25.35,42,26.37,42,27.36Z"/><path class="cls-1" d="M41,20.9c-.09-.24-.63-1.54-1.24-3h0a.54.54,0,0,1,.08-.34,15,15,0,0,1,1,2.77C40.85,20.5,40.91,20.67,41,20.9Z"/><path class="cls-1" d="M44.7,33.71l-.23-.37L42,29.08h0V27.37c0-1,0-2-.05-3,.1.36.21.71.31,1.08v.1c.06.21.13.43.18.65s.13.45.2.67c.21.68.41,1.37.61,2,.08.29.16.57.25.83.15.54.31,1.05.45,1.52C44.37,32.55,44.66,33.5,44.7,33.71Z"/><path class="cls-1" d="M59.85,29.67l-2.37,1.7-.08-.21C58.28,30.58,59.13,30.06,59.85,29.67Z"/><path class="cls-1" d="M58.63,35.34l-.35-.05h-.43l-.5,0-.67-.07c-.44-.05-.84-.08-1.16-.09h-.15a2.62,2.62,0,0,0-.56,0c-.58.1-2.37.49-3.83.8h0c.51-.4,3.67-2.8,6.47-4.65l.08.21h0c.09.26.17.52.25.78.17.59.34,1.18.5,1.77S58.49,34.88,58.63,35.34Z"/><path class="cls-1" d="M68.59,29.28v2.84a8.25,8.25,0,0,1-.06,1.24,16.76,16.76,0,0,1-.06,1.73v1.17l-.6-.06H67.4l-1.28-.08H64.25l-.17-1.7s-.59-5.22-.64-5.55c1.57-.19,3.6-.36,5.26-.49A2,2,0,0,0,68.59,29.28Z"/><path class="cls-1" d="M77.24,34.22h0l-.83,2.92-.31,1.09H76l-.52-.15-.36-.1-.41-.11-.23-.06-.73-.2-.27-.07-.12,0c-.07-.21-.15-.41-.24-.62l-.23-.62c-.33-.81-.68-1.62-1-2.45a19.11,19.11,0,0,1-.66-2.11l-.06-.28-.06-.28a1,1,0,0,0-.06-.42c0-.13,0-.2,0-.3s-.28-2.15-.28-2.29,0,2.79-.08,3.07l-.09.7a2,2,0,0,1-.06.59c-.06.2,0,.44-.06.66s0,.22,0,.33V34q0,.78-.06,1.56l-1.89-.49a16.57,16.57,0,0,1,.06-1.73,8.58,8.58,0,0,1,.06-1.24,10.73,10.73,0,0,0,0-1.39V28.3l2.94-.22h0l1.26.66.08.05c1.09.66,2.78,1.69,4.48,2.82A14.26,14.26,0,0,0,77.24,34.22Z"/><path class="cls-1" d="M68.37,35.09l1.89.49v1h-.41l-.29,0h-.39l-.49-.06h-.29C68.37,35.87,68.37,35.5,68.37,35.09Z"/><path class="cls-1" d="M72.78,28.69,71.52,28h.12Z"/><path class="cls-1" d="M86,42.69l-8-4-.2-1.19L77.32,34l-.07.23a13.13,13.13,0,0,1,.09-2.66l.6.41c1.19.81,2.34,1.65,3.26,2.42C84.49,37.14,86,42.69,86,42.69Z"/><path class="cls-1" d="M55.13,45.38l-.14.25-.33.61-.35.58c-.23.39-.47.78-.71,1.15a3.15,3.15,0,0,0,.18-.39l-2.23,2.83A99.27,99.27,0,0,1,48,41a7.66,7.66,0,0,1,.21-1c0-.16.61-.14.67-.09.56.41,1.24.93,2,1.52l.53.44.54.45c.19.16.38.31.56.48.38.32.75.66,1.13,1s.85.81,1.26,1.22Z"/><path class="cls-1" d="M60.56,51.35l-.32.21a30.1,30.1,0,0,0-5,3.46c-1.12-1.44-2.12-2.76-2.54-3.42l-.1-.18a.65.65,0,0,1-.09-.23.22.22,0,0,1,0-.16V51h0a.6.6,0,0,1,.05-.28,1.82,1.82,0,0,0,.11-.39l.09-.27.14-.39c.23-.6.5-1.23.68-1.62h0c.24-.37.48-.76.71-1.15l.35-.58.33-.61.14-.25,1.34,1.4h0l.12.12.11.13h0l.07.07.24.27.1.09.16.18.33.36.14.16.44.48.71.78.42.48.13.15.13.14.18.2.12.15.31.36a.13.13,0,0,1,.06.07h0l.06.08.06.07.06.07h0Z"/><path class="cls-1" d="M56.72,56.86a22.4,22.4,0,0,0,3.84-5.52A35.75,35.75,0,0,0,55.26,55C55.73,55.62,56.24,56.25,56.72,56.86Z"/><path class="cls-1" d="M66.15,58.5l-5.59-7.14h0a22.4,22.4,0,0,1-3.84,5.52c1.69,2.12,3.26,4,3.26,4l3.27-1h0C64.22,59.37,65.17,58.9,66.15,58.5Z"/><path class="cls-1" d="M63.24,59.85,60.9,62.27S64.22,59.37,63.24,59.85Z"/><path class="cls-1" d="M16.67,21.66h0Z"/><path class="cls-1" d="M21.27,22.07c-.08.29-.16.59-.25.89a.38.38,0,0,0,0,.15v.06a.17.17,0,0,0,0,.1c-2.33-.4-4.24-.69-4.73-.78h-.42a7,7,0,0,1,.41-.82h.64l.79.06h.38l1.21.1h.29l.49.06h.7Z"/><path class="cls-1" d="M16.2,22.5c.49.09,2.4.38,4.73.78-.29,1-.6,1.95-.92,2.92-.1.33-.22.65-.32,1s-.29.86-.43,1.29-.3.88-.44,1.33l-.4,1.33h0c-3.09.16-5.41.44-5.41.44l.75-2.5,1.48-5-.11.17a7.87,7.87,0,0,1,.41-1.15c.08-.2.16-.4.25-.59h.42Z"/><path class="cls-1" d="M21.27,22.07c-.08.29-.15.59-.24.89a.38.38,0,0,0,0,.15A.38.38,0,0,1,21,23Z"/><path class="cls-1" d="M33.44,25.35a6.5,6.5,0,0,1-.13,1.09.29.29,0,0,1,0,.13,3.73,3.73,0,0,1-.09.67L31.3,30.5l-.84,1.43A15.73,15.73,0,0,0,28,31.4c.19-.51.35-1,.5-1.53.5-1.61.91-3.25,1.25-4.89a1.61,1.61,0,0,1,.1-.36c.06-.32.13-.63.2-.94h0c.25.08.5.16.73.25a6.16,6.16,0,0,1,.67.26,8.2,8.2,0,0,1,1.1.57A7.81,7.81,0,0,1,33.44,25.35Z"/><path class="cls-1" d="M26.24,22.77H26l.55.1Z"/><path class="cls-1" d="M27.65,23.05h-.14l.53.12Z"/><path class="cls-1" d="M21.37,23.34c2.84.48,6.2,1.1,8.44,1.63-.35,1.64-.76,3.28-1.25,4.89-.16.52-.32,1-.5,1.53a45.13,45.13,0,0,0-7.62-.34c.08-.8.16-1.59.25-2.37h0C20.87,26.89,21.1,25.12,21.37,23.34Z"/><path class="cls-1" d="M30.08,23.66h0l-.66-.19A4.58,4.58,0,0,1,30.08,23.66Z"/><path class="cls-1" d="M21.52,22.09h0a5.27,5.27,0,0,1-.13.9v.34c-.25,1.78-.48,3.55-.68,5.34h0q-.13,1.17-.24,2.37a18.35,18.35,0,0,0-2,.07h0c.13-.45.27-.89.41-1.33s.29-.89.43-1.33.28-.86.43-1.29a8.66,8.66,0,0,0,.32-1c.34-1,.64-1.94.92-2.92v-.31c.09-.3.17-.6.25-.89Z"/><path class="cls-1" d="M33.44,25.35c-.06.64-.13,1.27-.25,1.89l.09-.17-.7,5.73,6,1.85c-.59-2-1-4-1.49-6A39.24,39.24,0,0,0,33.44,25.35Z"/><path class="cls-1" d="M44.69,36.5,44,36.29,43,36h0L38.6,34.63l-.37-1.33c-.07-.26-.13-.52-.2-.78s-.15-.6-.22-.9-.21-.89-.3-1.33a2,2,0,0,1-.09-.35l-.3-1.34.66.65c1,1,1.92,2,2.8,2.94h0l.08.09.49.53c.2.23.41.44.6.65h0l.36.39c.19.21.38.42.56.6a.8.8,0,0,0,.15.17l.15.16.3.33.29.3.25.27.11.1.1.1h0l.29.27.15.14A.93.93,0,0,0,44.69,36.5Z"/><path class="cls-1" d="M16.19,21.63h0a7,7,0,0,0-.41.82c-.09.19-.17.39-.25.59L7,31.82l4.68-1.93-1.3,2.2S1.51,34.22.44,35c-.09,0-.09,0,0-.08C1.37,33.6,13,21.5,13,21.5h1.92l1.13.06Z"/><path class="cls-1" d="M17.42,51.8C15.35,54.21,14.14,56,14.14,56s-2.49,7.61-.1,13.66a51.21,51.21,0,0,1,3.82-5A92.93,92.93,0,0,1,17.42,51.8Z"/><path class="cls-1" d="M28.71,51.87c-1,.92-2.05,2-3,2.9-1.47,1.44-2.65,2.64-2.68,2.74l.78-9.72L24,45.86l1.54-1c.07.45.13.89.19,1.33l.24,1.48Z"/><path class="cls-1" d="M25.7,54.77v3.66s-3.1.71-7.82,6.14l-.13-1.17h0l-.09-1V61.07a.67.67,0,0,1,0-.2h0c0-.39-.05-.77-.07-1.16V51.86c.74-.86,1.59-1.81,2.54-2.8.15-.16.31-.34.47-.5.52-.53,1.06-1.06,1.62-1.6.23-.23.47-.44.7-.66l2-1.8c.19-.17.4-.33.6-.49,0,.3.07.61.09.93l-1.54,1-.15,1.93L23,57.5C23.05,57.41,24.23,56.21,25.7,54.77Z"/><path class="cls-1" d="M33,50.57a20.93,20.93,0,0,0-2,4.73l-2.29-3.43-2.79-4.19-.24-1.48c1.17-1,2.35-1.89,3.46-2.72.43.84.88,1.68,1.32,2.52l.65,1.24c.24.42.45.83.68,1.24C32.17,49.18,32.56,49.88,33,50.57Z"/><path class="cls-1" d="M34.8,47.69A25.54,25.54,0,0,0,33,50.57c-.4-.69-.79-1.39-1.17-2.09-.23-.41-.44-.82-.68-1.24L30.46,46c-.44-.84-.89-1.68-1.32-2.52l-.39-.72L29.93,42l.47.57c.45.52.9,1,1.34,1.58C32.74,45.33,33.77,46.5,34.8,47.69Z"/><path class="cls-1" d="M29.93,42l-1.18.77c-.16-.32-.33-.64-.5-1,.26-.18.53-.35.8-.52a.15.15,0,0,1,.09-.06l.09-.06h0Z"/><path class="cls-1" d="M31.74,44.14l-1.37-1.58L29.9,42l1.59-1a7.21,7.21,0,0,0,.06.79C31.61,42.27,31.69,43.2,31.74,44.14Z"/><path class="cls-1" d="M41.17,41.66a24.91,24.91,0,0,0-6.37,6c-1-1.18-2.06-2.36-3.06-3.56,0-.94-.11-1.81-.15-2.4s-.06-.79-.06-.79l-1.6,1-.7-.83h0c.51-.33,1-.64,1.56-.94l.69-.38.6-.3.84-.39.58-.25q.66-.27,1.29-.48l.45-.14L35.8,38l.54-.14.26-.07.56-.11,1.27,1.15c.6.56,1.19,1.13,1.77,1.72l.22.22Z"/><path class="cls-1" d="M45.45,39.39h-.07a26,26,0,0,0-4.2,2.24l-.75-.78-.22-.22c-.58-.59-1.17-1.16-1.77-1.72l-1.27-1.15h0l.83-.14h.42c.27,0,.54-.06.8-.08H43l.55.11h.18l.45.12h.23l.91,1.29Z"/><path class="cls-1" d="M30.08,23.67c-.07.31-.14.62-.2.94a.5.5,0,0,1-.1.36c-2.24-.53-5.59-1.15-8.43-1.63V23a7.51,7.51,0,0,1,.13-.9h.08l1.24.15,1.22.16.86.13.6.1.52.09h.2l.34.06.36.07.39.08a.6.6,0,0,1,.19,0h.13L28,23h.06c.35.08.67.15,1,.24a1.38,1.38,0,0,1,.27.08Z"/><path class="cls-1" d="M16.19,21.64a7,7,0,0,0-.41.82l-2.33-.2L.45,35v-.08C1.37,33.6,13,21.5,13,21.5h1.92l1.13.06Z"/><path class="cls-1" d="M21.52,22.1a5.27,5.27,0,0,1-.13.9H21c.09-.3.16-.6.25-.89Z"/><path class="cls-1" d="M29.19,23.4l.24.08a1.38,1.38,0,0,0-.27-.08Z"/><path class="cls-1" d="M44.67,36.5,44,36.29,43,36h0l-1.15-1.29L39.37,32h0c-.64-.69-1.31-1.39-2-2a24.43,24.43,0,0,0-3.13-2.89c-.32-.21-.63-.41-.94-.63l-1.08-.7-.14-.07a11.67,11.67,0,0,0-2.23-1.06l.21-.94c.25.08.5.15.72.24l.67.26a7.15,7.15,0,0,1,1.1.57c.27.18.57.38.86.61s.56.44.85.69c.45.37.91.78,1.39,1.23l.57.52.37.36,1.13,1.12c1,1,1.92,2,2.8,2.93v.06l.08.09.49.53.61.66h0l.35.39.56.61.15.16c.05,0,.09.11.15.16a3.26,3.26,0,0,0,.31.33c.09.11.19.2.27.3a1.66,1.66,0,0,1,.26.27l.11.1.1.1h0l.29.27a1.44,1.44,0,0,1,.15.14Z"/><path class="cls-1" d="M29.14,43.5c-1.11.83-2.29,1.76-3.46,2.72-.06-.44-.12-.88-.19-1.33s-.06-.63-.09-.93c.22-.19.46-.37.69-.55.42-.33.85-.65,1.28-1l.66-.48c.22-.16.14-.09.21-.15.17.32.34.64.5,1Z"/><path class="cls-1" d="M25.37,43.94c0,.3.07.61.09.93l-1.54,1-.16,1.93a79.73,79.73,0,0,0-6.4,6.07A26.48,26.48,0,0,0,15.57,56C13.39,60.66,14,69.62,14,69.62c-2.39-6.05.11-13.66.11-13.66h0V55.9a.16.16,0,0,0,.07-.07l.08-.11.1-.14h0l.07-.11c.07-.09.13-.18.2-.26a.58.58,0,0,1,.11-.15c.12-.17.25-.34.41-.53l.09-.13a.41.41,0,0,0,.1-.13c.08-.11.18-.22.28-.34.46-.59,1-1.28,1.67-2s1.59-1.81,2.54-2.8c.15-.16.31-.34.47-.5.52-.53,1.06-1.06,1.62-1.6.23-.23.47-.44.7-.66l2-1.8C25,44.26,25.2,44.1,25.37,43.94Z"/><path class="cls-1" d="M45.37,39.32c-1.09-.54-3.88-.83-6.88-.38a17.94,17.94,0,0,0-3,.71,17.87,17.87,0,0,0-3.81,2.09,4.25,4.25,0,0,0-.06-.78L30,42l-1.18.77c-.16-.32-.33-.64-.5-1,.26-.18.53-.35.8-.52a.15.15,0,0,1,.09-.06l.09-.06h0c.51-.32,1-.64,1.56-.94.23-.14.46-.26.7-.38l.58-.3.84-.39c.2-.09.39-.17.59-.24.44-.18.87-.35,1.29-.49a3,3,0,0,1,.45-.14l.55-.17.56-.14.26-.07.56-.11h0l.83-.14h.41a6.94,6.94,0,0,1,.81-.08h3.74l.48.09h.24l.45.11h.22Z"/><path class="cls-1" d="M86,42.69l-8-4-.18-1.19L77.32,34l-.07.23a13.13,13.13,0,0,1,.09-2.66c-1.69-1.13-3.39-2.17-4.49-2.82l-.08-.05L71.51,28l-1.09.07-1.86.14c-1.66.14-3.69.31-5.26.5-.75.08-1.4.17-1.85.26a5.91,5.91,0,0,0-1.6.67l-2.37,1.7a.06.06,0,0,0,0,.06c.08.26.17.51.24.77.19.59.33,1.18.51,1.77s.26.92.39,1.36h-.77l-.51-.06-.67-.07-1.16-.1h-.14a2.62,2.62,0,0,0-.56,0l-.66.13-.38.08h-.08l-.46.1-1.18.25L51,35.88H50.9a6.1,6.1,0,0,0-2.37,2.8,86.41,86.41,0,0,1,9,2.75c-.22.09-.45.2-.66.31l-.38.21a3.47,3.47,0,0,0-.46.27,3.15,3.15,0,0,0-.47.3c-.16.09-.31.2-.46.3l-.18.12-.17.13c-.19.13-.37.27-.54.4a95.22,95.22,0,0,1,7.13,7.89l.65.87h0c1.18,1.55,2.66,3.54,4.13,5.57h0v.05c2.87,3.92,5.73,7.88,6.3,8.69h0l-.06-.06v0l-.09-.09-.18-.23c-1-1.23-3.62-4.36-6.2-7.54-2.13-2.61-4.27-5.24-5.53-6.87h0c0-.05-.07-.11-.11-.15h0c-.48-.61-.82-1.06-1-1.3A36.65,36.65,0,0,0,55,45.7l.14-.25-.26-.26c-.42-.43-.84-.83-1.27-1.23s-.75-.68-1.12-1l-.56-.49L51.38,42l-.53-.43c-.74-.6-1.42-1.12-2-1.52-.06-.06-.62-.08-.67.08a7.66,7.66,0,0,0-.21,1,2.43,2.43,0,0,0-.08.47,3.11,3.11,0,0,0,0,.61l1.59,20.7a30.73,30.73,0,0,0-1.27-2.8v-.49a4.51,4.51,0,0,0,0-.52c0-.73-.08-1.51-.14-2.33,0-.41-.06-.82-.1-1.24h0a4.39,4.39,0,0,0-.07-1l-.09-1h0a15.29,15.29,0,0,0-.16-1.66,2.84,2.84,0,0,0-.06-.71c-.37-3.52-.71-6.43-.71-6.43v-.26a14.36,14.36,0,0,0-.23-1.85A11.65,11.65,0,0,0,46,40.25l-.54-.75-.06-.1-.92-1.3h0L43,36.1l1,.32.7.21h0l1,1.21-1-4h0c0-.2-.35-1.16-.74-2.49-.14-.47-.3-1-.45-1.52-.09-.26-.17-.54-.25-.83-.2-.65-.4-1.34-.61-2-.07-.22-.13-.45-.2-.67s-.12-.44-.18-.65v-.1c-.1-.37-.21-.72-.31-1.08l-.32-1.14a1.9,1.9,0,0,0-.11-.39h0c0-.08,0-.15-.07-.22l-.16-.61a1.33,1.33,0,0,0-.1-.34l-.06-.2a2,2,0,0,0-.13-.49h0c-.06-.23-.11-.42-.14-.59a15,15,0,0,0-1-2.77c-.3-.61-.64-1.24-1-1.91l-1-2.49a2.82,2.82,0,0,0-.73-.51l-.55-.91a5.38,5.38,0,0,0-2,1h0a4.58,4.58,0,0,0-1.39,1.16h0a46.84,46.84,0,0,0-5.76,6.82c.17-.3.74-1.2,2.53-4.12a16.57,16.57,0,0,1,6.59-6,28.29,28.29,0,0,1,4.61,7.34c1.76,4.05,4.08,14.8,4.66,17.17l1.33,3.58a.35.35,0,0,0,.12.07l.55-3.86L48,35c.16-.06.4-.15.71-.3l-.32,2.53a4.77,4.77,0,0,1,.73-.76c.07-.06,2.46-2.24,5.26-4.4s6-4.32,7.69-4.37c3.4-.08,10.3-1,10.84,0s9.2,4.7,11.24,8.77S86,42.69,86,42.69Z"/></g></g></svg>